G04 Layer: BottomPasteMaskLayer*
G04 EasyEDA v6.5.39, 2023-12-21 10:53:13*
G04 3e67a15472894c6e83902e6d43e54a9e,2402692d15bd446891542ced5281a4ad,10*
G04 Gerber Generator version 0.2*
G04 Scale: 100 percent, Rotated: No, Reflected: No *
G04 Dimensions in millimeters *
G04 leading zeros omitted , absolute positions ,4 integer and 5 decimal *
%FSLAX45Y45*%
%MOMM*%

%ADD10C,0.0001*%

%LPD*%
G36*
X3669487Y-2458313D02*
G01*
X3664508Y-2463292D01*
X3664000Y-2504287D01*
X3709009Y-2504287D01*
X3709009Y-2549296D01*
X3665016Y-2549296D01*
X3664508Y-2591308D01*
X3669487Y-2596286D01*
X3784498Y-2596286D01*
X3789527Y-2591308D01*
X3789527Y-2463292D01*
X3784498Y-2458313D01*
G37*
G36*
X3454501Y-2458313D02*
G01*
X3449523Y-2463292D01*
X3449523Y-2591308D01*
X3454501Y-2596286D01*
X3569512Y-2596286D01*
X3574491Y-2591308D01*
X3574491Y-2549296D01*
X3529990Y-2549296D01*
X3529990Y-2504287D01*
X3573983Y-2504287D01*
X3574491Y-2463292D01*
X3569512Y-2458313D01*
G37*
G36*
X3948887Y-3004413D02*
G01*
X3943908Y-3009392D01*
X3943400Y-3050387D01*
X3988409Y-3050387D01*
X3988409Y-3095396D01*
X3944416Y-3095396D01*
X3943908Y-3137408D01*
X3948887Y-3142386D01*
X4063898Y-3142386D01*
X4068927Y-3137408D01*
X4068927Y-3009392D01*
X4063898Y-3004413D01*
G37*
G36*
X3733901Y-3004413D02*
G01*
X3728923Y-3009392D01*
X3728923Y-3137408D01*
X3733901Y-3142386D01*
X3848912Y-3142386D01*
X3853891Y-3137408D01*
X3853891Y-3095396D01*
X3809390Y-3095396D01*
X3809390Y-3050387D01*
X3853383Y-3050387D01*
X3853891Y-3009392D01*
X3848912Y-3004413D01*
G37*
G36*
X5234990Y-2663494D02*
G01*
X5230012Y-2668524D01*
X5230012Y-2796489D01*
X5234990Y-2801518D01*
X5350002Y-2801518D01*
X5354980Y-2796489D01*
X5355488Y-2755493D01*
X5310479Y-2755493D01*
X5310479Y-2710484D01*
X5354523Y-2710484D01*
X5354980Y-2668524D01*
X5350002Y-2663494D01*
G37*
G36*
X5449976Y-2663494D02*
G01*
X5444998Y-2668524D01*
X5444998Y-2710484D01*
X5489498Y-2710484D01*
X5489498Y-2755493D01*
X5445506Y-2755493D01*
X5444998Y-2796489D01*
X5449976Y-2801518D01*
X5564987Y-2801518D01*
X5570016Y-2796489D01*
X5570016Y-2668524D01*
X5564987Y-2663494D01*
G37*
G36*
X924712Y-755700D02*
G01*
X924712Y-800709D01*
X879703Y-800709D01*
X879703Y-756716D01*
X837692Y-756208D01*
X832713Y-761187D01*
X832713Y-876198D01*
X837692Y-881227D01*
X965708Y-881227D01*
X970686Y-876198D01*
X970686Y-761187D01*
X965708Y-756208D01*
G37*
G36*
X837692Y-541223D02*
G01*
X832713Y-546201D01*
X832713Y-661212D01*
X837692Y-666191D01*
X879703Y-666191D01*
X879703Y-621690D01*
X924712Y-621690D01*
X924712Y-665683D01*
X965708Y-666191D01*
X970686Y-661212D01*
X970686Y-546201D01*
X965708Y-541223D01*
G37*
G36*
X1459992Y-795172D02*
G01*
X1455013Y-800201D01*
X1455013Y-915212D01*
X1459992Y-920191D01*
X1500987Y-920699D01*
X1500987Y-875690D01*
X1545996Y-875690D01*
X1545996Y-919683D01*
X1588008Y-920191D01*
X1592986Y-915212D01*
X1592986Y-800201D01*
X1588008Y-795172D01*
G37*
G36*
X1459992Y-1010208D02*
G01*
X1455013Y-1015187D01*
X1455013Y-1130198D01*
X1459992Y-1135176D01*
X1588008Y-1135176D01*
X1592986Y-1130198D01*
X1592986Y-1015187D01*
X1588008Y-1010208D01*
X1545996Y-1010208D01*
X1545996Y-1054709D01*
X1500987Y-1054709D01*
X1500987Y-1010716D01*
G37*
G36*
X1547012Y-412800D02*
G01*
X1547012Y-457809D01*
X1502003Y-457809D01*
X1502003Y-413816D01*
X1459992Y-413308D01*
X1455013Y-418287D01*
X1455013Y-533298D01*
X1459992Y-538327D01*
X1588008Y-538327D01*
X1592986Y-533298D01*
X1592986Y-418287D01*
X1588008Y-413308D01*
G37*
G36*
X1459992Y-198323D02*
G01*
X1455013Y-203301D01*
X1455013Y-318312D01*
X1459992Y-323291D01*
X1502003Y-323291D01*
X1502003Y-278790D01*
X1547012Y-278790D01*
X1547012Y-322783D01*
X1588008Y-323291D01*
X1592986Y-318312D01*
X1592986Y-203301D01*
X1588008Y-198323D01*
G37*
M02*
