M48
METRIC,LZ,000.000
;FILE_FORMAT=3:3
;TYPE=PLATED
;Layer: PTH_Through
;EasyEDA v6.5.34, 2023-10-02 16:25:13
;b22e730f800c4eb688f2bffe192e1f16,2402692d15bd446891542ced5281a4ad,10
;Gerber Generator version 0.2
;Holesize 1 = 0.800 mm
T01C0.800
;Holesize 2 = 1.000 mm
T02C1.000
;Holesize 3 = 1.050 mm
T03C1.050
;Holesize 4 = 1.101 mm
T04C1.101
;Holesize 5 = 1.200 mm
T05C1.200
;Holesize 6 = 1.301 mm
T06C1.301
;Holesize 7 = 1.400 mm
T07C1.400
%
G05
G90
T01
X012700Y-010033
X012700Y-007493
X012700Y-004953
X012700Y-002413
X005080Y-010033
X005080Y-007493
X005080Y-004953
X005080Y-002413
T02
X046736Y-033020
X046736Y-030480
T03
X019685Y-022860
X022225Y-022860
X024765Y-022860
X027305Y-022860
X029845Y-022860
X032385Y-022860
X034925Y-022860
X037465Y-022860
X040005Y-022860
X042545Y-022860
X045085Y-022860
X047625Y-022860
X050165Y-022860
X052705Y-022860
X055245Y-022860
X055245Y-007620
X052705Y-007620
X050165Y-007620
X047625Y-007620
X045085Y-007620
X042545Y-007620
X040005Y-007620
X037465Y-007620
X034925Y-007620
X032385Y-007620
X029845Y-007620
X027305Y-007620
X024765Y-007620
X022225Y-007620
X019685Y-007620
T04
X040005Y-026924
X037465Y-026924
X034925Y-026924
X032385Y-026924
X042545Y-003175
X045085Y-003175
X047625Y-003175
X050165Y-003175
T05
X037465Y-003175
X034925Y-003175
X032385Y-003175
X053213Y-030480
X053213Y-033020
T06
X004445Y-014898
X004445Y-019900
X004572Y-026328
X004572Y-031330
T07
X025940Y-035000
X031540Y-035000
X016300Y-035000
X010700Y-035000
M30
