G04 Layer: BottomLayer*
G04 EasyEDA v6.5.34, 2023-10-02 16:25:13*
G04 b22e730f800c4eb688f2bffe192e1f16,2402692d15bd446891542ced5281a4ad,10*
G04 Gerber Generator version 0.2*
G04 Scale: 100 percent, Rotated: No, Reflected: No *
G04 Dimensions in millimeters *
G04 leading zeros omitted , absolute positions ,4 integer and 5 decimal *
%FSLAX45Y45*%
%MOMM*%

%AMMACRO1*21,1,$1,$2,0,0,$3*%
%ADD10C,2.5400*%
%ADD11C,1.0000*%
%ADD12R,1.3770X1.1325*%
%ADD13MACRO1,1.377X1.1325X0.0000*%
%ADD14C,1.6000*%
%ADD15C,2.3000*%
%ADD16R,1.7000X1.7000*%
%ADD17C,1.7000*%
%ADD18C,1.8000*%
%ADD19R,1.5748X1.8000*%
%ADD20R,2.0000X2.0000*%
%ADD21C,2.0000*%
%ADD22R,1.6000X1.6000*%
%ADD23O,1.82499X1.4599920000000002*%
%ADD24O,0.013X1.4599920000000002*%

%LPD*%
G36*
X3289655Y-3974084D02*
G01*
X3285439Y-3973169D01*
X3281984Y-3970578D01*
X3279901Y-3966819D01*
X3279597Y-3962501D01*
X3281121Y-3958437D01*
X3285032Y-3952341D01*
X3289096Y-3945128D01*
X3292754Y-3937711D01*
X3296056Y-3930091D01*
X3298901Y-3922318D01*
X3301339Y-3914394D01*
X3303320Y-3906367D01*
X3304895Y-3898239D01*
X3306013Y-3890010D01*
X3306673Y-3881780D01*
X3306927Y-3873347D01*
X3306927Y-3500120D01*
X3306673Y-3491737D01*
X3306013Y-3483457D01*
X3304895Y-3475278D01*
X3303320Y-3467100D01*
X3301339Y-3459073D01*
X3298901Y-3451148D01*
X3296056Y-3443376D01*
X3292754Y-3435807D01*
X3289096Y-3428390D01*
X3285032Y-3421176D01*
X3280562Y-3414166D01*
X3275736Y-3407460D01*
X3270554Y-3401009D01*
X3265017Y-3394862D01*
X3259175Y-3388969D01*
X3252978Y-3383432D01*
X3246526Y-3378250D01*
X3239820Y-3373424D01*
X3232810Y-3368954D01*
X3225647Y-3364890D01*
X3218230Y-3361232D01*
X3210610Y-3357930D01*
X3202838Y-3355086D01*
X3194913Y-3352647D01*
X3186887Y-3350666D01*
X3178759Y-3349091D01*
X3170529Y-3347974D01*
X3162300Y-3347313D01*
X3153867Y-3347110D01*
X2884220Y-3347110D01*
X2880360Y-3346297D01*
X2877058Y-3344113D01*
X2419146Y-2886303D01*
X2409596Y-2877921D01*
X2406548Y-2875534D01*
X2396134Y-2868269D01*
X2392832Y-2866237D01*
X2381707Y-2860141D01*
X2378252Y-2858465D01*
X2366518Y-2853639D01*
X2362860Y-2852318D01*
X2350668Y-2848762D01*
X2346909Y-2847898D01*
X2334412Y-2845663D01*
X2330551Y-2845206D01*
X2317902Y-2844342D01*
X1318310Y-2844292D01*
X1314754Y-2843631D01*
X1311656Y-2841802D01*
X1180084Y-2727248D01*
X1177645Y-2724099D01*
X1176629Y-2720238D01*
X1175867Y-2709011D01*
X1175410Y-2705150D01*
X1173175Y-2692654D01*
X1172311Y-2688894D01*
X1168755Y-2676702D01*
X1162608Y-2661361D01*
X1160932Y-2657856D01*
X1154836Y-2646730D01*
X1152804Y-2643428D01*
X1145540Y-2633014D01*
X1143152Y-2629966D01*
X1134770Y-2620416D01*
X1032357Y-2518003D01*
X1022807Y-2509621D01*
X1019759Y-2507234D01*
X1009345Y-2499969D01*
X1006043Y-2497937D01*
X994918Y-2491841D01*
X991412Y-2490165D01*
X976071Y-2484018D01*
X963879Y-2480462D01*
X960119Y-2479598D01*
X947623Y-2477363D01*
X943762Y-2476906D01*
X931113Y-2476042D01*
X457250Y-2476042D01*
X444601Y-2476906D01*
X440791Y-2477363D01*
X429463Y-2479395D01*
X427532Y-2479548D01*
X128981Y-2475992D01*
X118668Y-2476246D01*
X112318Y-2476703D01*
X102209Y-2478024D01*
X95961Y-2479192D01*
X86055Y-2481580D01*
X79959Y-2483408D01*
X70358Y-2486863D01*
X64516Y-2489352D01*
X55321Y-2493822D01*
X49784Y-2496921D01*
X41503Y-2502154D01*
X37439Y-2503627D01*
X33172Y-2503322D01*
X29413Y-2501239D01*
X26822Y-2497785D01*
X25908Y-2493568D01*
X25908Y-300685D01*
X26822Y-278079D01*
X29362Y-256743D01*
X33629Y-235610D01*
X39471Y-214934D01*
X46939Y-194767D01*
X55981Y-175209D01*
X66548Y-156464D01*
X78536Y-138582D01*
X91846Y-121716D01*
X106476Y-105918D01*
X122326Y-91338D01*
X139242Y-78028D01*
X157124Y-66141D01*
X175920Y-55626D01*
X195478Y-46634D01*
X215696Y-39217D01*
X236423Y-33426D01*
X257505Y-29260D01*
X278892Y-26771D01*
X300685Y-25908D01*
X5699302Y-25908D01*
X5721908Y-26822D01*
X5743244Y-29362D01*
X5764377Y-33629D01*
X5785053Y-39471D01*
X5805220Y-46939D01*
X5824778Y-55981D01*
X5843524Y-66548D01*
X5861405Y-78536D01*
X5878271Y-91846D01*
X5894070Y-106476D01*
X5908649Y-122326D01*
X5921959Y-139242D01*
X5933846Y-157124D01*
X5944362Y-175920D01*
X5953353Y-195478D01*
X5960770Y-215696D01*
X5966561Y-236423D01*
X5970727Y-257505D01*
X5973216Y-278892D01*
X5974080Y-300685D01*
X5974080Y-3699306D01*
X5973165Y-3721912D01*
X5970625Y-3743248D01*
X5966358Y-3764381D01*
X5960516Y-3785057D01*
X5953048Y-3805224D01*
X5944006Y-3824782D01*
X5933440Y-3843528D01*
X5921451Y-3861409D01*
X5908141Y-3878275D01*
X5893511Y-3894074D01*
X5877661Y-3908653D01*
X5860745Y-3921963D01*
X5842863Y-3933850D01*
X5824067Y-3944365D01*
X5804509Y-3953357D01*
X5784291Y-3960774D01*
X5763564Y-3966565D01*
X5742482Y-3970731D01*
X5721096Y-3973220D01*
X5699302Y-3974084D01*
G37*

%LPC*%
G36*
X5704535Y-3875836D02*
G01*
X5722569Y-3874414D01*
X5740400Y-3871163D01*
X5757773Y-3866134D01*
X5774537Y-3859276D01*
X5790539Y-3850792D01*
X5805576Y-3840683D01*
X5819444Y-3829100D01*
X5832094Y-3816096D01*
X5843371Y-3801922D01*
X5853074Y-3786632D01*
X5861151Y-3770426D01*
X5867552Y-3753459D01*
X5872175Y-3735984D01*
X5874969Y-3718102D01*
X5875883Y-3700018D01*
X5874969Y-3681882D01*
X5872175Y-3664000D01*
X5867552Y-3646525D01*
X5861151Y-3629558D01*
X5853074Y-3613353D01*
X5843371Y-3598062D01*
X5832094Y-3583889D01*
X5819444Y-3570884D01*
X5805576Y-3559301D01*
X5790539Y-3549192D01*
X5774537Y-3540709D01*
X5757773Y-3533851D01*
X5740400Y-3528822D01*
X5722569Y-3525570D01*
X5704535Y-3524148D01*
X5686399Y-3524605D01*
X5668467Y-3526942D01*
X5650839Y-3531108D01*
X5633720Y-3537051D01*
X5617311Y-3544722D01*
X5601817Y-3554069D01*
X5587288Y-3564940D01*
X5574030Y-3577234D01*
X5562041Y-3590848D01*
X5551576Y-3605580D01*
X5542635Y-3621328D01*
X5535422Y-3637940D01*
X5529884Y-3655212D01*
X5526176Y-3672941D01*
X5524347Y-3690924D01*
X5524347Y-3709060D01*
X5526176Y-3727043D01*
X5529884Y-3744772D01*
X5535422Y-3762044D01*
X5542635Y-3778656D01*
X5551576Y-3794404D01*
X5562041Y-3809136D01*
X5574030Y-3822750D01*
X5587288Y-3835044D01*
X5601817Y-3845915D01*
X5617311Y-3855262D01*
X5633720Y-3862933D01*
X5650839Y-3868877D01*
X5668467Y-3873042D01*
X5686399Y-3875379D01*
G37*
G36*
X5321300Y-3427882D02*
G01*
X5336489Y-3426968D01*
X5351424Y-3424224D01*
X5365953Y-3419703D01*
X5379821Y-3413455D01*
X5392826Y-3405581D01*
X5398566Y-3401110D01*
X5401411Y-3399536D01*
X5460288Y-3378504D01*
X5463692Y-3377895D01*
X5524296Y-3377895D01*
X5530189Y-3377692D01*
X5535828Y-3377031D01*
X5541365Y-3376015D01*
X5546852Y-3374542D01*
X5552236Y-3372662D01*
X5557418Y-3370376D01*
X5562447Y-3367735D01*
X5567273Y-3364687D01*
X5571845Y-3361334D01*
X5576112Y-3357626D01*
X5580126Y-3353612D01*
X5583834Y-3349345D01*
X5587187Y-3344773D01*
X5590235Y-3339947D01*
X5592876Y-3334918D01*
X5595162Y-3329736D01*
X5597042Y-3324351D01*
X5598515Y-3318865D01*
X5599531Y-3313328D01*
X5600192Y-3307689D01*
X5600395Y-3301796D01*
X5600395Y-2398115D01*
X5600547Y-2396337D01*
X5608472Y-2352040D01*
X5610047Y-2348179D01*
X5616194Y-2338933D01*
X5622340Y-2326538D01*
X5626760Y-2313381D01*
X5628944Y-2302510D01*
X5630570Y-2298700D01*
X5656275Y-2261768D01*
X5657443Y-2260396D01*
X5834024Y-2083765D01*
X5841085Y-2074925D01*
X5845708Y-2067306D01*
X5846826Y-2065121D01*
X5850229Y-2056892D01*
X5850991Y-2054555D01*
X5853125Y-2045919D01*
X5853531Y-2043480D01*
X5854344Y-2034641D01*
X5854344Y-518058D01*
X5853531Y-509219D01*
X5853125Y-506780D01*
X5850991Y-498144D01*
X5850229Y-495808D01*
X5846826Y-487578D01*
X5845708Y-485393D01*
X5841085Y-477774D01*
X5834024Y-468934D01*
X5627065Y-261975D01*
X5618226Y-254914D01*
X5610606Y-250291D01*
X5608421Y-249174D01*
X5600192Y-245770D01*
X5597855Y-245008D01*
X5589219Y-242874D01*
X5586780Y-242468D01*
X5577941Y-241655D01*
X5136337Y-241604D01*
X5134051Y-241350D01*
X5086146Y-230276D01*
X5082590Y-228701D01*
X5074005Y-222656D01*
X5061407Y-216103D01*
X5048046Y-211175D01*
X5034178Y-208025D01*
X5020056Y-206654D01*
X5005832Y-207111D01*
X4991811Y-209397D01*
X4978196Y-213461D01*
X4965192Y-219202D01*
X4953050Y-226567D01*
X4941925Y-235407D01*
X4932070Y-245617D01*
X4923586Y-256997D01*
X4916576Y-269392D01*
X4911242Y-282549D01*
X4907635Y-296316D01*
X4905857Y-310388D01*
X4905857Y-324612D01*
X4907635Y-338683D01*
X4911242Y-352450D01*
X4916576Y-365607D01*
X4923586Y-378002D01*
X4932070Y-389382D01*
X4941925Y-399592D01*
X4953050Y-408432D01*
X4965192Y-415798D01*
X4978196Y-421589D01*
X4991811Y-425602D01*
X5005832Y-427888D01*
X5020056Y-428345D01*
X5034178Y-426974D01*
X5048046Y-423824D01*
X5061407Y-418896D01*
X5074005Y-412343D01*
X5082590Y-406298D01*
X5086146Y-404723D01*
X5134051Y-393649D01*
X5136337Y-393395D01*
X5539638Y-393395D01*
X5543550Y-394157D01*
X5546852Y-396392D01*
X5699607Y-549148D01*
X5701842Y-552450D01*
X5702604Y-556361D01*
X5702604Y-1996338D01*
X5701842Y-2000250D01*
X5699607Y-2003552D01*
X5550103Y-2153056D01*
X5548731Y-2154174D01*
X5511800Y-2179929D01*
X5507990Y-2181555D01*
X5497118Y-2183739D01*
X5483961Y-2188159D01*
X5471566Y-2194306D01*
X5460034Y-2201976D01*
X5449620Y-2211120D01*
X5440476Y-2221534D01*
X5432806Y-2233066D01*
X5426659Y-2245461D01*
X5422239Y-2258568D01*
X5419496Y-2272182D01*
X5418632Y-2286000D01*
X5419496Y-2299817D01*
X5422239Y-2313381D01*
X5426659Y-2326538D01*
X5432806Y-2338933D01*
X5438952Y-2348179D01*
X5440527Y-2352040D01*
X5448452Y-2396337D01*
X5448604Y-2398115D01*
X5448604Y-2916428D01*
X5447690Y-2920644D01*
X5445099Y-2924098D01*
X5441340Y-2926181D01*
X5437073Y-2926486D01*
X5427065Y-2922828D01*
X5420715Y-2922117D01*
X5377637Y-2922117D01*
X5377637Y-2991662D01*
X5438444Y-2991662D01*
X5442305Y-2992424D01*
X5445607Y-2994609D01*
X5447842Y-2997911D01*
X5448604Y-3001822D01*
X5448604Y-3094177D01*
X5447842Y-3098088D01*
X5445607Y-3101390D01*
X5442305Y-3103575D01*
X5438444Y-3104337D01*
X5377637Y-3104337D01*
X5377637Y-3174136D01*
X5376926Y-3177844D01*
X5374944Y-3181045D01*
X5371896Y-3183280D01*
X5368239Y-3184245D01*
X5364480Y-3183839D01*
X5351424Y-3179775D01*
X5336489Y-3177032D01*
X5321300Y-3176117D01*
X5306110Y-3177032D01*
X5291175Y-3179775D01*
X5278120Y-3183839D01*
X5274360Y-3184245D01*
X5270703Y-3183280D01*
X5267655Y-3181045D01*
X5265674Y-3177844D01*
X5264962Y-3174136D01*
X5264962Y-3104337D01*
X5195417Y-3104337D01*
X5195417Y-3147415D01*
X5196128Y-3153765D01*
X5198008Y-3159201D01*
X5201107Y-3164128D01*
X5205171Y-3168192D01*
X5210098Y-3171291D01*
X5215534Y-3173171D01*
X5221884Y-3173933D01*
X5253837Y-3173933D01*
X5258104Y-3174847D01*
X5261610Y-3177489D01*
X5263642Y-3181350D01*
X5263896Y-3185718D01*
X5262270Y-3189732D01*
X5259120Y-3192780D01*
X5249773Y-3198418D01*
X5244033Y-3202889D01*
X5241188Y-3204464D01*
X5182311Y-3225495D01*
X5178907Y-3226104D01*
X4785715Y-3226104D01*
X4783937Y-3225952D01*
X4739640Y-3218027D01*
X4735779Y-3216452D01*
X4726533Y-3210306D01*
X4714138Y-3204159D01*
X4700981Y-3199739D01*
X4687417Y-3196996D01*
X4673600Y-3196132D01*
X4659782Y-3196996D01*
X4646218Y-3199739D01*
X4633061Y-3204159D01*
X4620666Y-3210306D01*
X4611420Y-3216452D01*
X4607560Y-3218027D01*
X4563262Y-3225952D01*
X4561484Y-3226104D01*
X3858361Y-3226104D01*
X3854450Y-3225342D01*
X3851148Y-3223107D01*
X3571392Y-2943352D01*
X3569157Y-2940050D01*
X3568395Y-2936138D01*
X3568395Y-2812237D01*
X3568649Y-2809951D01*
X3579774Y-2761894D01*
X3581501Y-2758135D01*
X3585413Y-2752902D01*
X3592423Y-2740507D01*
X3597757Y-2727350D01*
X3601364Y-2713583D01*
X3603142Y-2699512D01*
X3603142Y-2685288D01*
X3601364Y-2671216D01*
X3597757Y-2657449D01*
X3592423Y-2644292D01*
X3585413Y-2631897D01*
X3576929Y-2620518D01*
X3567074Y-2610307D01*
X3555949Y-2601468D01*
X3543808Y-2594102D01*
X3530803Y-2588361D01*
X3517188Y-2584297D01*
X3503168Y-2582011D01*
X3488944Y-2581554D01*
X3474821Y-2582926D01*
X3460953Y-2586075D01*
X3447592Y-2591003D01*
X3434994Y-2597556D01*
X3423361Y-2605684D01*
X3412845Y-2615234D01*
X3403650Y-2626055D01*
X3395878Y-2637993D01*
X3389731Y-2650794D01*
X3385261Y-2664256D01*
X3382518Y-2678226D01*
X3381603Y-2692400D01*
X3382518Y-2706573D01*
X3385261Y-2720543D01*
X3389731Y-2734005D01*
X3395878Y-2746806D01*
X3404006Y-2759252D01*
X3405378Y-2762504D01*
X3416350Y-2809951D01*
X3416604Y-2812237D01*
X3416604Y-2885744D01*
X3415842Y-2889605D01*
X3413607Y-2892907D01*
X3410305Y-2895142D01*
X3406444Y-2895904D01*
X3032861Y-2895904D01*
X3028950Y-2895142D01*
X3025648Y-2892907D01*
X2642565Y-2509875D01*
X2633726Y-2502814D01*
X2626106Y-2498191D01*
X2623921Y-2497074D01*
X2615692Y-2493670D01*
X2613355Y-2492908D01*
X2604719Y-2490774D01*
X2602280Y-2490368D01*
X2593441Y-2489555D01*
X1572361Y-2489504D01*
X1568450Y-2488742D01*
X1565148Y-2486507D01*
X1107592Y-2028952D01*
X1105357Y-2025650D01*
X1104595Y-2021738D01*
X1104544Y-1800758D01*
X1103731Y-1791919D01*
X1103325Y-1789480D01*
X1101191Y-1780844D01*
X1100429Y-1778507D01*
X1097026Y-1770278D01*
X1095908Y-1768093D01*
X1091285Y-1760474D01*
X1084224Y-1751634D01*
X1016965Y-1684375D01*
X1008126Y-1677314D01*
X1000506Y-1672691D01*
X998321Y-1671574D01*
X990092Y-1668170D01*
X987755Y-1667408D01*
X979119Y-1665274D01*
X976680Y-1664868D01*
X967841Y-1664055D01*
X442061Y-1664004D01*
X438150Y-1663242D01*
X434848Y-1661007D01*
X402183Y-1628343D01*
X399796Y-1624584D01*
X399237Y-1620113D01*
X400659Y-1615897D01*
X403758Y-1612696D01*
X407924Y-1611071D01*
X412394Y-1611426D01*
X414375Y-1612087D01*
X429310Y-1614830D01*
X444500Y-1615744D01*
X459689Y-1614830D01*
X474624Y-1612087D01*
X489153Y-1607566D01*
X503021Y-1601317D01*
X516026Y-1593443D01*
X527964Y-1584045D01*
X538734Y-1573326D01*
X541629Y-1569618D01*
X543814Y-1567535D01*
X546608Y-1566214D01*
X549605Y-1565757D01*
X671830Y-1565706D01*
X680669Y-1564843D01*
X683107Y-1564436D01*
X691692Y-1562303D01*
X694029Y-1561541D01*
X702259Y-1558137D01*
X704443Y-1557020D01*
X712063Y-1552448D01*
X714095Y-1551025D01*
X720953Y-1545336D01*
X957224Y-1309065D01*
X964285Y-1300226D01*
X968908Y-1292606D01*
X970026Y-1290421D01*
X973429Y-1282192D01*
X974191Y-1279855D01*
X976325Y-1271219D01*
X976731Y-1268780D01*
X977544Y-1259941D01*
X977595Y-899363D01*
X978153Y-896010D01*
X979830Y-893013D01*
X982370Y-890727D01*
X986688Y-888034D01*
X990752Y-883919D01*
X993851Y-879043D01*
X995730Y-873607D01*
X996442Y-867257D01*
X996442Y-755142D01*
X995730Y-748842D01*
X993851Y-743356D01*
X990752Y-738479D01*
X986688Y-734364D01*
X981760Y-731316D01*
X976325Y-729386D01*
X969975Y-728675D01*
X833424Y-728675D01*
X827074Y-729386D01*
X821639Y-731316D01*
X816711Y-734364D01*
X812647Y-738479D01*
X809548Y-743356D01*
X807669Y-748842D01*
X806958Y-755142D01*
X806958Y-867257D01*
X807669Y-873607D01*
X809548Y-879043D01*
X812647Y-883919D01*
X816711Y-888034D01*
X821029Y-890727D01*
X823569Y-893013D01*
X825246Y-896010D01*
X825804Y-899363D01*
X825804Y-1221638D01*
X825042Y-1225550D01*
X822807Y-1228852D01*
X640689Y-1410970D01*
X637387Y-1413154D01*
X633526Y-1413916D01*
X549605Y-1413916D01*
X546608Y-1413459D01*
X543814Y-1412138D01*
X541629Y-1410055D01*
X538734Y-1406347D01*
X527964Y-1395628D01*
X516026Y-1386230D01*
X503021Y-1378356D01*
X489153Y-1372108D01*
X474624Y-1367586D01*
X459689Y-1364843D01*
X444500Y-1363929D01*
X429310Y-1364843D01*
X414375Y-1367586D01*
X399846Y-1372108D01*
X385978Y-1378356D01*
X372973Y-1386230D01*
X361035Y-1395628D01*
X350266Y-1406347D01*
X340918Y-1418336D01*
X333044Y-1431340D01*
X326796Y-1445209D01*
X322275Y-1459687D01*
X319532Y-1474673D01*
X318617Y-1489862D01*
X319532Y-1505000D01*
X322275Y-1519986D01*
X322884Y-1521968D01*
X323240Y-1526387D01*
X321665Y-1530553D01*
X318465Y-1533652D01*
X314198Y-1535074D01*
X309778Y-1534515D01*
X306019Y-1532128D01*
X256692Y-1482852D01*
X254457Y-1479550D01*
X253695Y-1475638D01*
X253695Y-1190040D01*
X254457Y-1186180D01*
X256692Y-1182878D01*
X357378Y-1082192D01*
X360680Y-1079957D01*
X364540Y-1079195D01*
X422808Y-1079195D01*
X426415Y-1079855D01*
X429564Y-1081735D01*
X440283Y-1088948D01*
X451916Y-1094638D01*
X464159Y-1098804D01*
X476859Y-1101344D01*
X490067Y-1102207D01*
X525932Y-1102207D01*
X539140Y-1101344D01*
X551840Y-1098804D01*
X564083Y-1094638D01*
X575716Y-1088948D01*
X586435Y-1081735D01*
X596188Y-1073200D01*
X604723Y-1063498D01*
X611886Y-1052728D01*
X617626Y-1041146D01*
X621741Y-1028903D01*
X624281Y-1016203D01*
X625144Y-1003300D01*
X624281Y-990396D01*
X621741Y-977696D01*
X617626Y-965453D01*
X611886Y-953871D01*
X604723Y-943102D01*
X596188Y-933399D01*
X586435Y-924864D01*
X575716Y-917651D01*
X564083Y-911961D01*
X551840Y-907796D01*
X539140Y-905256D01*
X525932Y-904392D01*
X490067Y-904392D01*
X476859Y-905256D01*
X464159Y-907796D01*
X451916Y-911961D01*
X440283Y-917651D01*
X429514Y-924864D01*
X426415Y-926744D01*
X422808Y-927404D01*
X326237Y-927455D01*
X317398Y-928268D01*
X315010Y-928674D01*
X306374Y-930808D01*
X304038Y-931570D01*
X295808Y-934974D01*
X293624Y-936091D01*
X283972Y-942136D01*
X277164Y-947775D01*
X124409Y-1100480D01*
X116738Y-1109370D01*
X110693Y-1118971D01*
X106172Y-1129334D01*
X103225Y-1140307D01*
X101955Y-1151839D01*
X101955Y-1513941D01*
X102768Y-1522780D01*
X103174Y-1525219D01*
X105308Y-1533855D01*
X106070Y-1536192D01*
X109474Y-1544421D01*
X110591Y-1546606D01*
X115214Y-1554226D01*
X122275Y-1563065D01*
X354634Y-1795424D01*
X363474Y-1802485D01*
X371094Y-1807108D01*
X373278Y-1808225D01*
X381508Y-1811629D01*
X383844Y-1812391D01*
X392480Y-1814525D01*
X394919Y-1814931D01*
X403758Y-1815744D01*
X929538Y-1815795D01*
X933450Y-1816557D01*
X936752Y-1818792D01*
X949807Y-1831848D01*
X952042Y-1835150D01*
X952804Y-1839061D01*
X952855Y-2060041D01*
X953668Y-2068880D01*
X954074Y-2071319D01*
X956208Y-2079955D01*
X956970Y-2082292D01*
X960374Y-2090521D01*
X961491Y-2092706D01*
X966114Y-2100326D01*
X973175Y-2109165D01*
X1484934Y-2620924D01*
X1493774Y-2627985D01*
X1501394Y-2632608D01*
X1503578Y-2633726D01*
X1511808Y-2637129D01*
X1514144Y-2637891D01*
X1522780Y-2640025D01*
X1525219Y-2640431D01*
X1534058Y-2641244D01*
X2555138Y-2641295D01*
X2559050Y-2642057D01*
X2562352Y-2644292D01*
X2945434Y-3027324D01*
X2954274Y-3034385D01*
X2961894Y-3039008D01*
X2964078Y-3040126D01*
X2972308Y-3043529D01*
X2974644Y-3044291D01*
X2983280Y-3046425D01*
X2985719Y-3046831D01*
X2994558Y-3047644D01*
X3456838Y-3047695D01*
X3460750Y-3048457D01*
X3464051Y-3050692D01*
X3770934Y-3357524D01*
X3779774Y-3364585D01*
X3787394Y-3369208D01*
X3789578Y-3370326D01*
X3797808Y-3373729D01*
X3800144Y-3374491D01*
X3808780Y-3376625D01*
X3811219Y-3377031D01*
X3820058Y-3377844D01*
X4561484Y-3377895D01*
X4563262Y-3378047D01*
X4607560Y-3385972D01*
X4611420Y-3387547D01*
X4620666Y-3393694D01*
X4633061Y-3399840D01*
X4646218Y-3404260D01*
X4659782Y-3407003D01*
X4673600Y-3407867D01*
X4687417Y-3407003D01*
X4700981Y-3404260D01*
X4714138Y-3399840D01*
X4726533Y-3393694D01*
X4735779Y-3387547D01*
X4739640Y-3385972D01*
X4783937Y-3378047D01*
X4785715Y-3377895D01*
X5178907Y-3377895D01*
X5182311Y-3378504D01*
X5241188Y-3399536D01*
X5244033Y-3401110D01*
X5249773Y-3405581D01*
X5262778Y-3413455D01*
X5276646Y-3419703D01*
X5291175Y-3424224D01*
X5306110Y-3426968D01*
G37*
G36*
X4719929Y-3142945D02*
G01*
X4726533Y-3139694D01*
X4738065Y-3132023D01*
X4748479Y-3122879D01*
X4757623Y-3112465D01*
X4765294Y-3100933D01*
X4768545Y-3094329D01*
X4719929Y-3094329D01*
G37*
G36*
X4627270Y-3142945D02*
G01*
X4627270Y-3094329D01*
X4578654Y-3094329D01*
X4581906Y-3100933D01*
X4589576Y-3112465D01*
X4598720Y-3122879D01*
X4609134Y-3132023D01*
X4620666Y-3139694D01*
G37*
G36*
X4719929Y-3001670D02*
G01*
X4768545Y-3001670D01*
X4765294Y-2995066D01*
X4757623Y-2983534D01*
X4748479Y-2973120D01*
X4738065Y-2963976D01*
X4726533Y-2956306D01*
X4719929Y-2953054D01*
G37*
G36*
X4578654Y-3001670D02*
G01*
X4627270Y-3001670D01*
X4627270Y-2953054D01*
X4620666Y-2956306D01*
X4609134Y-2963976D01*
X4598720Y-2973120D01*
X4589576Y-2983534D01*
X4581906Y-2995066D01*
G37*
G36*
X5195417Y-2991662D02*
G01*
X5264962Y-2991662D01*
X5264962Y-2922117D01*
X5221884Y-2922117D01*
X5215534Y-2922828D01*
X5210098Y-2924708D01*
X5205171Y-2927807D01*
X5201107Y-2931871D01*
X5198008Y-2936798D01*
X5196128Y-2942234D01*
X5195417Y-2948584D01*
G37*
G36*
X3916070Y-2803296D02*
G01*
X4084929Y-2803296D01*
X4091228Y-2802585D01*
X4096715Y-2800705D01*
X4101592Y-2797606D01*
X4105706Y-2793492D01*
X4108805Y-2788615D01*
X4110685Y-2783128D01*
X4111396Y-2776829D01*
X4111396Y-2607970D01*
X4110583Y-2600960D01*
X4076649Y-2455570D01*
X4076395Y-2453233D01*
X4076395Y-2398115D01*
X4076547Y-2396337D01*
X4084472Y-2352040D01*
X4086047Y-2348179D01*
X4092194Y-2338933D01*
X4098340Y-2326538D01*
X4102760Y-2313381D01*
X4105503Y-2299817D01*
X4106367Y-2286000D01*
X4105503Y-2272182D01*
X4102760Y-2258568D01*
X4098340Y-2245461D01*
X4092194Y-2233066D01*
X4084523Y-2221534D01*
X4075379Y-2211120D01*
X4064965Y-2201976D01*
X4053433Y-2194306D01*
X4041038Y-2188159D01*
X4027881Y-2183739D01*
X4014317Y-2180996D01*
X4000500Y-2180132D01*
X3986682Y-2180996D01*
X3973118Y-2183739D01*
X3959961Y-2188159D01*
X3947566Y-2194306D01*
X3936034Y-2201976D01*
X3925620Y-2211120D01*
X3916476Y-2221534D01*
X3908806Y-2233066D01*
X3902659Y-2245461D01*
X3898239Y-2258568D01*
X3895496Y-2272182D01*
X3894632Y-2286000D01*
X3895496Y-2299817D01*
X3898239Y-2313381D01*
X3902659Y-2326538D01*
X3908806Y-2338933D01*
X3914952Y-2348179D01*
X3916527Y-2352040D01*
X3924452Y-2396337D01*
X3924604Y-2398115D01*
X3924604Y-2453233D01*
X3924350Y-2455570D01*
X3890416Y-2600960D01*
X3889603Y-2607970D01*
X3889603Y-2776829D01*
X3890314Y-2783128D01*
X3892194Y-2788615D01*
X3895293Y-2793492D01*
X3899408Y-2797606D01*
X3904284Y-2800705D01*
X3909771Y-2802585D01*
G37*
G36*
X3742944Y-2803245D02*
G01*
X3757168Y-2802788D01*
X3771188Y-2800502D01*
X3784803Y-2796489D01*
X3797808Y-2790698D01*
X3809949Y-2783332D01*
X3821074Y-2774492D01*
X3830929Y-2764282D01*
X3839413Y-2752902D01*
X3846423Y-2740507D01*
X3851757Y-2727350D01*
X3855364Y-2713583D01*
X3857142Y-2699512D01*
X3857142Y-2685288D01*
X3855364Y-2671216D01*
X3851757Y-2657449D01*
X3846423Y-2644292D01*
X3839413Y-2631897D01*
X3835501Y-2626664D01*
X3833774Y-2622905D01*
X3822649Y-2574848D01*
X3822395Y-2572562D01*
X3822395Y-2398115D01*
X3822547Y-2396337D01*
X3830472Y-2352040D01*
X3832047Y-2348179D01*
X3838194Y-2338933D01*
X3844340Y-2326538D01*
X3848760Y-2313381D01*
X3851503Y-2299817D01*
X3852367Y-2286000D01*
X3851503Y-2272182D01*
X3848760Y-2258568D01*
X3844340Y-2245461D01*
X3838194Y-2233066D01*
X3830523Y-2221534D01*
X3821379Y-2211120D01*
X3810965Y-2201976D01*
X3799433Y-2194306D01*
X3787038Y-2188159D01*
X3773881Y-2183739D01*
X3760317Y-2180996D01*
X3746500Y-2180132D01*
X3732682Y-2180996D01*
X3719118Y-2183739D01*
X3705961Y-2188159D01*
X3693566Y-2194306D01*
X3682034Y-2201976D01*
X3671620Y-2211120D01*
X3662476Y-2221534D01*
X3654806Y-2233066D01*
X3648659Y-2245461D01*
X3644239Y-2258568D01*
X3641496Y-2272182D01*
X3640632Y-2286000D01*
X3641496Y-2299817D01*
X3644239Y-2313381D01*
X3648659Y-2326538D01*
X3654806Y-2338933D01*
X3660952Y-2348179D01*
X3662527Y-2352040D01*
X3670452Y-2396337D01*
X3670604Y-2398115D01*
X3670604Y-2572562D01*
X3670350Y-2574848D01*
X3659378Y-2622296D01*
X3658006Y-2625547D01*
X3649878Y-2637993D01*
X3643731Y-2650794D01*
X3639261Y-2664256D01*
X3636518Y-2678226D01*
X3635603Y-2692400D01*
X3636518Y-2706573D01*
X3639261Y-2720543D01*
X3643731Y-2734005D01*
X3649878Y-2746806D01*
X3657650Y-2758744D01*
X3666845Y-2769565D01*
X3677361Y-2779115D01*
X3688994Y-2787243D01*
X3701592Y-2793796D01*
X3714953Y-2798724D01*
X3728821Y-2801874D01*
G37*
G36*
X3287369Y-2791815D02*
G01*
X3289808Y-2790698D01*
X3301949Y-2783332D01*
X3313074Y-2774492D01*
X3322929Y-2764282D01*
X3331413Y-2752902D01*
X3337966Y-2741269D01*
X3287369Y-2741269D01*
G37*
G36*
X3189630Y-2791714D02*
G01*
X3189630Y-2741269D01*
X3139186Y-2741269D01*
X3141878Y-2746806D01*
X3149650Y-2758744D01*
X3158845Y-2769565D01*
X3169361Y-2779115D01*
X3180994Y-2787243D01*
G37*
G36*
X3139186Y-2643530D02*
G01*
X3189630Y-2643530D01*
X3189630Y-2593086D01*
X3180994Y-2597556D01*
X3169361Y-2605684D01*
X3158845Y-2615234D01*
X3149650Y-2626055D01*
X3141878Y-2637993D01*
G37*
G36*
X3287369Y-2643530D02*
G01*
X3337966Y-2643530D01*
X3331413Y-2631897D01*
X3322929Y-2620518D01*
X3313074Y-2610307D01*
X3301949Y-2601468D01*
X3289808Y-2594102D01*
X3287369Y-2592984D01*
G37*
G36*
X1889048Y-2391918D02*
G01*
X1922170Y-2391918D01*
X1922170Y-2332329D01*
X1862582Y-2332329D01*
X1862582Y-2365400D01*
X1863293Y-2371750D01*
X1865223Y-2377186D01*
X1868271Y-2382113D01*
X1872386Y-2386177D01*
X1877263Y-2389276D01*
X1882749Y-2391206D01*
G37*
G36*
X2014829Y-2391918D02*
G01*
X2047951Y-2391918D01*
X2054250Y-2391206D01*
X2059736Y-2389276D01*
X2064613Y-2386177D01*
X2068728Y-2382113D01*
X2071776Y-2377186D01*
X2073706Y-2371750D01*
X2074418Y-2365400D01*
X2074418Y-2332329D01*
X2014829Y-2332329D01*
G37*
G36*
X2476500Y-2391867D02*
G01*
X2490317Y-2390952D01*
X2503881Y-2388260D01*
X2517038Y-2383840D01*
X2529433Y-2377694D01*
X2540965Y-2370023D01*
X2551379Y-2360879D01*
X2560523Y-2350465D01*
X2568194Y-2338933D01*
X2574340Y-2326538D01*
X2578760Y-2313381D01*
X2581503Y-2299817D01*
X2582367Y-2286000D01*
X2581503Y-2272182D01*
X2578760Y-2258568D01*
X2574340Y-2245461D01*
X2568194Y-2233066D01*
X2560523Y-2221534D01*
X2551379Y-2211120D01*
X2540965Y-2201976D01*
X2529433Y-2194306D01*
X2517038Y-2188159D01*
X2503881Y-2183739D01*
X2490317Y-2180996D01*
X2476500Y-2180132D01*
X2462682Y-2180996D01*
X2449118Y-2183739D01*
X2435961Y-2188159D01*
X2423566Y-2194306D01*
X2412034Y-2201976D01*
X2401620Y-2211120D01*
X2392476Y-2221534D01*
X2384806Y-2233066D01*
X2378659Y-2245461D01*
X2374239Y-2258568D01*
X2371496Y-2272182D01*
X2370632Y-2286000D01*
X2371496Y-2299817D01*
X2374239Y-2313381D01*
X2378659Y-2326538D01*
X2384806Y-2338933D01*
X2392476Y-2350465D01*
X2401620Y-2360879D01*
X2412034Y-2370023D01*
X2423566Y-2377694D01*
X2435961Y-2383840D01*
X2449118Y-2388260D01*
X2462682Y-2390952D01*
G37*
G36*
X5016500Y-2391867D02*
G01*
X5030317Y-2390952D01*
X5043881Y-2388260D01*
X5057038Y-2383840D01*
X5069433Y-2377694D01*
X5080965Y-2370023D01*
X5091379Y-2360879D01*
X5100523Y-2350465D01*
X5108194Y-2338933D01*
X5114340Y-2326538D01*
X5118760Y-2313381D01*
X5121503Y-2299817D01*
X5122367Y-2286000D01*
X5121503Y-2272182D01*
X5118760Y-2258568D01*
X5114340Y-2245461D01*
X5108194Y-2233066D01*
X5100523Y-2221534D01*
X5091379Y-2211120D01*
X5080965Y-2201976D01*
X5069433Y-2194306D01*
X5057038Y-2188159D01*
X5043881Y-2183739D01*
X5030317Y-2180996D01*
X5016500Y-2180132D01*
X5002682Y-2180996D01*
X4989118Y-2183739D01*
X4975961Y-2188159D01*
X4963566Y-2194306D01*
X4952034Y-2201976D01*
X4941620Y-2211120D01*
X4932476Y-2221534D01*
X4924806Y-2233066D01*
X4918659Y-2245461D01*
X4914239Y-2258568D01*
X4911496Y-2272182D01*
X4910632Y-2286000D01*
X4911496Y-2299817D01*
X4914239Y-2313381D01*
X4918659Y-2326538D01*
X4924806Y-2338933D01*
X4932476Y-2350465D01*
X4941620Y-2360879D01*
X4952034Y-2370023D01*
X4963566Y-2377694D01*
X4975961Y-2383840D01*
X4989118Y-2388260D01*
X5002682Y-2390952D01*
G37*
G36*
X4762500Y-2391867D02*
G01*
X4776317Y-2390952D01*
X4789881Y-2388260D01*
X4803038Y-2383840D01*
X4815433Y-2377694D01*
X4826965Y-2370023D01*
X4837379Y-2360879D01*
X4846523Y-2350465D01*
X4854194Y-2338933D01*
X4860340Y-2326538D01*
X4864760Y-2313381D01*
X4867503Y-2299817D01*
X4868367Y-2286000D01*
X4867503Y-2272182D01*
X4864760Y-2258568D01*
X4860340Y-2245461D01*
X4854194Y-2233066D01*
X4846523Y-2221534D01*
X4837379Y-2211120D01*
X4826965Y-2201976D01*
X4815433Y-2194306D01*
X4803038Y-2188159D01*
X4789881Y-2183739D01*
X4776317Y-2180996D01*
X4762500Y-2180132D01*
X4748682Y-2180996D01*
X4735118Y-2183739D01*
X4721961Y-2188159D01*
X4709566Y-2194306D01*
X4698034Y-2201976D01*
X4687620Y-2211120D01*
X4678476Y-2221534D01*
X4670806Y-2233066D01*
X4664659Y-2245461D01*
X4660239Y-2258568D01*
X4657496Y-2272182D01*
X4656632Y-2286000D01*
X4657496Y-2299817D01*
X4660239Y-2313381D01*
X4664659Y-2326538D01*
X4670806Y-2338933D01*
X4678476Y-2350465D01*
X4687620Y-2360879D01*
X4698034Y-2370023D01*
X4709566Y-2377694D01*
X4721961Y-2383840D01*
X4735118Y-2388260D01*
X4748682Y-2390952D01*
G37*
G36*
X2222500Y-2391867D02*
G01*
X2236317Y-2390952D01*
X2249881Y-2388260D01*
X2263038Y-2383840D01*
X2275433Y-2377694D01*
X2286965Y-2370023D01*
X2297379Y-2360879D01*
X2306523Y-2350465D01*
X2314194Y-2338933D01*
X2320340Y-2326538D01*
X2324760Y-2313381D01*
X2327503Y-2299817D01*
X2328367Y-2286000D01*
X2327503Y-2272182D01*
X2324760Y-2258568D01*
X2320340Y-2245461D01*
X2314194Y-2233066D01*
X2306523Y-2221534D01*
X2297379Y-2211120D01*
X2286965Y-2201976D01*
X2275433Y-2194306D01*
X2263038Y-2188159D01*
X2249881Y-2183739D01*
X2236317Y-2180996D01*
X2222500Y-2180132D01*
X2208682Y-2180996D01*
X2195118Y-2183739D01*
X2181961Y-2188159D01*
X2169566Y-2194306D01*
X2158034Y-2201976D01*
X2147620Y-2211120D01*
X2138476Y-2221534D01*
X2130806Y-2233066D01*
X2124659Y-2245461D01*
X2120239Y-2258568D01*
X2117496Y-2272182D01*
X2116632Y-2286000D01*
X2117496Y-2299817D01*
X2120239Y-2313381D01*
X2124659Y-2326538D01*
X2130806Y-2338933D01*
X2138476Y-2350465D01*
X2147620Y-2360879D01*
X2158034Y-2370023D01*
X2169566Y-2377694D01*
X2181961Y-2383840D01*
X2195118Y-2388260D01*
X2208682Y-2390952D01*
G37*
G36*
X3030829Y-2380945D02*
G01*
X3037433Y-2377694D01*
X3048965Y-2370023D01*
X3059379Y-2360879D01*
X3068523Y-2350465D01*
X3076194Y-2338933D01*
X3079445Y-2332329D01*
X3030829Y-2332329D01*
G37*
G36*
X3192170Y-2380945D02*
G01*
X3192170Y-2332329D01*
X3143554Y-2332329D01*
X3146806Y-2338933D01*
X3154476Y-2350465D01*
X3163620Y-2360879D01*
X3174034Y-2370023D01*
X3185566Y-2377694D01*
G37*
G36*
X3446170Y-2380945D02*
G01*
X3446170Y-2332329D01*
X3397554Y-2332329D01*
X3400806Y-2338933D01*
X3408476Y-2350465D01*
X3417620Y-2360879D01*
X3428034Y-2370023D01*
X3439566Y-2377694D01*
G37*
G36*
X2938170Y-2380945D02*
G01*
X2938170Y-2332329D01*
X2889554Y-2332329D01*
X2892806Y-2338933D01*
X2900476Y-2350465D01*
X2909620Y-2360879D01*
X2920034Y-2370023D01*
X2931566Y-2377694D01*
G37*
G36*
X2684170Y-2380945D02*
G01*
X2684170Y-2332329D01*
X2635554Y-2332329D01*
X2638806Y-2338933D01*
X2646476Y-2350465D01*
X2655620Y-2360879D01*
X2666034Y-2370023D01*
X2677566Y-2377694D01*
G37*
G36*
X4300829Y-2380945D02*
G01*
X4307433Y-2377694D01*
X4318965Y-2370023D01*
X4329379Y-2360879D01*
X4338523Y-2350465D01*
X4346194Y-2338933D01*
X4349445Y-2332329D01*
X4300829Y-2332329D01*
G37*
G36*
X4554829Y-2380945D02*
G01*
X4561433Y-2377694D01*
X4572965Y-2370023D01*
X4583379Y-2360879D01*
X4592523Y-2350465D01*
X4600194Y-2338933D01*
X4603445Y-2332329D01*
X4554829Y-2332329D01*
G37*
G36*
X3284829Y-2380945D02*
G01*
X3291433Y-2377694D01*
X3302965Y-2370023D01*
X3313379Y-2360879D01*
X3322523Y-2350465D01*
X3330194Y-2338933D01*
X3333445Y-2332329D01*
X3284829Y-2332329D01*
G37*
G36*
X2776829Y-2380945D02*
G01*
X2783433Y-2377694D01*
X2794965Y-2370023D01*
X2805379Y-2360879D01*
X2814523Y-2350465D01*
X2822194Y-2338933D01*
X2825445Y-2332329D01*
X2776829Y-2332329D01*
G37*
G36*
X4462170Y-2380945D02*
G01*
X4462170Y-2332329D01*
X4413554Y-2332329D01*
X4416806Y-2338933D01*
X4424476Y-2350465D01*
X4433620Y-2360879D01*
X4444034Y-2370023D01*
X4455566Y-2377694D01*
G37*
G36*
X4208170Y-2380945D02*
G01*
X4208170Y-2332329D01*
X4159554Y-2332329D01*
X4162806Y-2338933D01*
X4170476Y-2350465D01*
X4179620Y-2360879D01*
X4190034Y-2370023D01*
X4201566Y-2377694D01*
G37*
G36*
X3538829Y-2380945D02*
G01*
X3545433Y-2377694D01*
X3556965Y-2370023D01*
X3567379Y-2360879D01*
X3576523Y-2350465D01*
X3584194Y-2338933D01*
X3587445Y-2332329D01*
X3538829Y-2332329D01*
G37*
G36*
X5224170Y-2380945D02*
G01*
X5224170Y-2332329D01*
X5175554Y-2332329D01*
X5178806Y-2338933D01*
X5186476Y-2350465D01*
X5195620Y-2360879D01*
X5206034Y-2370023D01*
X5217566Y-2377694D01*
G37*
G36*
X5316829Y-2380945D02*
G01*
X5323433Y-2377694D01*
X5334965Y-2370023D01*
X5345379Y-2360879D01*
X5354523Y-2350465D01*
X5362194Y-2338933D01*
X5365445Y-2332329D01*
X5316829Y-2332329D01*
G37*
G36*
X3030829Y-2239670D02*
G01*
X3079445Y-2239670D01*
X3076194Y-2233066D01*
X3068523Y-2221534D01*
X3059379Y-2211120D01*
X3048965Y-2201976D01*
X3037433Y-2194306D01*
X3030829Y-2191054D01*
G37*
G36*
X3143554Y-2239670D02*
G01*
X3192170Y-2239670D01*
X3192170Y-2191054D01*
X3185566Y-2194306D01*
X3174034Y-2201976D01*
X3163620Y-2211120D01*
X3154476Y-2221534D01*
X3146806Y-2233066D01*
G37*
G36*
X3397554Y-2239670D02*
G01*
X3446170Y-2239670D01*
X3446170Y-2191054D01*
X3439566Y-2194306D01*
X3428034Y-2201976D01*
X3417620Y-2211120D01*
X3408476Y-2221534D01*
X3400806Y-2233066D01*
G37*
G36*
X2889554Y-2239670D02*
G01*
X2938170Y-2239670D01*
X2938170Y-2191054D01*
X2931566Y-2194306D01*
X2920034Y-2201976D01*
X2909620Y-2211120D01*
X2900476Y-2221534D01*
X2892806Y-2233066D01*
G37*
G36*
X2635554Y-2239670D02*
G01*
X2684170Y-2239670D01*
X2684170Y-2191054D01*
X2677566Y-2194306D01*
X2666034Y-2201976D01*
X2655620Y-2211120D01*
X2646476Y-2221534D01*
X2638806Y-2233066D01*
G37*
G36*
X4300829Y-2239670D02*
G01*
X4349445Y-2239670D01*
X4346194Y-2233066D01*
X4338523Y-2221534D01*
X4329379Y-2211120D01*
X4318965Y-2201976D01*
X4307433Y-2194306D01*
X4300829Y-2191054D01*
G37*
G36*
X4554829Y-2239670D02*
G01*
X4603445Y-2239670D01*
X4600194Y-2233066D01*
X4592523Y-2221534D01*
X4583379Y-2211120D01*
X4572965Y-2201976D01*
X4561433Y-2194306D01*
X4554829Y-2191054D01*
G37*
G36*
X3284829Y-2239670D02*
G01*
X3333445Y-2239670D01*
X3330194Y-2233066D01*
X3322523Y-2221534D01*
X3313379Y-2211120D01*
X3302965Y-2201976D01*
X3291433Y-2194306D01*
X3284829Y-2191054D01*
G37*
G36*
X2776829Y-2239670D02*
G01*
X2825445Y-2239670D01*
X2822194Y-2233066D01*
X2814523Y-2221534D01*
X2805379Y-2211120D01*
X2794965Y-2201976D01*
X2783433Y-2194306D01*
X2776829Y-2191054D01*
G37*
G36*
X4413554Y-2239670D02*
G01*
X4462170Y-2239670D01*
X4462170Y-2191054D01*
X4455566Y-2194306D01*
X4444034Y-2201976D01*
X4433620Y-2211120D01*
X4424476Y-2221534D01*
X4416806Y-2233066D01*
G37*
G36*
X4159554Y-2239670D02*
G01*
X4208170Y-2239670D01*
X4208170Y-2191054D01*
X4201566Y-2194306D01*
X4190034Y-2201976D01*
X4179620Y-2211120D01*
X4170476Y-2221534D01*
X4162806Y-2233066D01*
G37*
G36*
X5316829Y-2239670D02*
G01*
X5365445Y-2239670D01*
X5362194Y-2233066D01*
X5354523Y-2221534D01*
X5345379Y-2211120D01*
X5334965Y-2201976D01*
X5323433Y-2194306D01*
X5316829Y-2191054D01*
G37*
G36*
X5175554Y-2239670D02*
G01*
X5224170Y-2239670D01*
X5224170Y-2191054D01*
X5217566Y-2194306D01*
X5206034Y-2201976D01*
X5195620Y-2211120D01*
X5186476Y-2221534D01*
X5178806Y-2233066D01*
G37*
G36*
X3538829Y-2239670D02*
G01*
X3587445Y-2239670D01*
X3584194Y-2233066D01*
X3576523Y-2221534D01*
X3567379Y-2211120D01*
X3556965Y-2201976D01*
X3545433Y-2194306D01*
X3538829Y-2191054D01*
G37*
G36*
X1862582Y-2239670D02*
G01*
X1922170Y-2239670D01*
X1922170Y-2180082D01*
X1889048Y-2180082D01*
X1882749Y-2180793D01*
X1877263Y-2182723D01*
X1872386Y-2185771D01*
X1868271Y-2189886D01*
X1865223Y-2194763D01*
X1863293Y-2200249D01*
X1862582Y-2206548D01*
G37*
G36*
X2014829Y-2239670D02*
G01*
X2074418Y-2239670D01*
X2074418Y-2206548D01*
X2073706Y-2200249D01*
X2071776Y-2194763D01*
X2068728Y-2189886D01*
X2064613Y-2185771D01*
X2059736Y-2182723D01*
X2054250Y-2180793D01*
X2047951Y-2180082D01*
X2014829Y-2180082D01*
G37*
G36*
X388162Y-2102408D02*
G01*
X388162Y-2046325D01*
X332079Y-2046325D01*
X333044Y-2048459D01*
X340918Y-2061464D01*
X350266Y-2073452D01*
X361035Y-2084171D01*
X372973Y-2093569D01*
X385978Y-2101443D01*
G37*
G36*
X500837Y-2102408D02*
G01*
X503021Y-2101443D01*
X516026Y-2093569D01*
X527964Y-2084171D01*
X538734Y-2073452D01*
X548081Y-2061464D01*
X555955Y-2048459D01*
X556920Y-2046325D01*
X500837Y-2046325D01*
G37*
G36*
X500837Y-1933600D02*
G01*
X556920Y-1933600D01*
X555955Y-1931466D01*
X548081Y-1918462D01*
X538734Y-1906473D01*
X527964Y-1895754D01*
X516026Y-1886356D01*
X503021Y-1878482D01*
X500837Y-1877517D01*
G37*
G36*
X332079Y-1933600D02*
G01*
X388162Y-1933600D01*
X388162Y-1877517D01*
X385978Y-1878482D01*
X372973Y-1886356D01*
X361035Y-1895754D01*
X350266Y-1906473D01*
X340918Y-1918462D01*
X333044Y-1931466D01*
G37*
G36*
X1455724Y-1147724D02*
G01*
X1592275Y-1147724D01*
X1598625Y-1147013D01*
X1604060Y-1145133D01*
X1607972Y-1142644D01*
X1610563Y-1141526D01*
X1613357Y-1141120D01*
X4010253Y-1141120D01*
X4014571Y-1141831D01*
X4026255Y-1142695D01*
X4104741Y-1142644D01*
X4113580Y-1141831D01*
X4116019Y-1141425D01*
X4124655Y-1139291D01*
X4126992Y-1138529D01*
X4135221Y-1135126D01*
X4137406Y-1134008D01*
X4145026Y-1129385D01*
X4153865Y-1122324D01*
X4310024Y-966165D01*
X4317085Y-957326D01*
X4321708Y-949706D01*
X4322826Y-947521D01*
X4326229Y-939292D01*
X4326991Y-936955D01*
X4329125Y-928319D01*
X4329531Y-925880D01*
X4330344Y-917041D01*
X4330395Y-874115D01*
X4330547Y-872337D01*
X4338472Y-828040D01*
X4340047Y-824179D01*
X4346194Y-814933D01*
X4352340Y-802538D01*
X4356760Y-789381D01*
X4359503Y-775817D01*
X4360367Y-762000D01*
X4359503Y-748182D01*
X4356760Y-734618D01*
X4352340Y-721461D01*
X4346194Y-709066D01*
X4338523Y-697534D01*
X4329379Y-687120D01*
X4318965Y-677976D01*
X4307433Y-670306D01*
X4295038Y-664159D01*
X4281881Y-659739D01*
X4268317Y-656996D01*
X4254500Y-656132D01*
X4240682Y-656996D01*
X4227118Y-659739D01*
X4213961Y-664159D01*
X4201566Y-670306D01*
X4190034Y-677976D01*
X4179620Y-687120D01*
X4170476Y-697534D01*
X4162806Y-709066D01*
X4156659Y-721461D01*
X4152239Y-734618D01*
X4149496Y-748182D01*
X4148632Y-762000D01*
X4149496Y-775817D01*
X4152239Y-789381D01*
X4156659Y-802538D01*
X4162806Y-814933D01*
X4168952Y-824179D01*
X4170527Y-828040D01*
X4178452Y-872337D01*
X4178604Y-878738D01*
X4177842Y-882650D01*
X4175607Y-885952D01*
X4073651Y-987907D01*
X4070350Y-990142D01*
X4066438Y-990904D01*
X4041546Y-990904D01*
X4037228Y-990142D01*
X4025544Y-989279D01*
X1613357Y-989279D01*
X1610563Y-988872D01*
X1607972Y-987755D01*
X1604060Y-985316D01*
X1598625Y-983386D01*
X1592275Y-982675D01*
X1455724Y-982675D01*
X1449374Y-983386D01*
X1443939Y-985316D01*
X1440027Y-987755D01*
X1437436Y-988872D01*
X1434642Y-989279D01*
X1394409Y-989279D01*
X1391005Y-988720D01*
X1387957Y-986993D01*
X1385671Y-984351D01*
X1384452Y-981100D01*
X1383741Y-977696D01*
X1379626Y-965453D01*
X1373886Y-953871D01*
X1366723Y-943102D01*
X1358188Y-933399D01*
X1348435Y-924864D01*
X1337716Y-917651D01*
X1326083Y-911961D01*
X1313840Y-907796D01*
X1301140Y-905256D01*
X1287932Y-904392D01*
X1252067Y-904392D01*
X1238859Y-905256D01*
X1226159Y-907796D01*
X1213916Y-911961D01*
X1202283Y-917651D01*
X1191564Y-924864D01*
X1181811Y-933399D01*
X1173276Y-943102D01*
X1166114Y-953871D01*
X1160373Y-965453D01*
X1156258Y-977696D01*
X1153718Y-990396D01*
X1152855Y-1003300D01*
X1153718Y-1016203D01*
X1156258Y-1028903D01*
X1160373Y-1041146D01*
X1166114Y-1052728D01*
X1173276Y-1063498D01*
X1181811Y-1073200D01*
X1191564Y-1081735D01*
X1202283Y-1088948D01*
X1213916Y-1094638D01*
X1226159Y-1098804D01*
X1238859Y-1101344D01*
X1252067Y-1102207D01*
X1257350Y-1102207D01*
X1261211Y-1102969D01*
X1264513Y-1105154D01*
X1280210Y-1120749D01*
X1286967Y-1126388D01*
X1288999Y-1127810D01*
X1296619Y-1132382D01*
X1298803Y-1133500D01*
X1307033Y-1136904D01*
X1309370Y-1137666D01*
X1317955Y-1139799D01*
X1320393Y-1140206D01*
X1329232Y-1141069D01*
X1434642Y-1141120D01*
X1437436Y-1141526D01*
X1440027Y-1142644D01*
X1443939Y-1145133D01*
X1449374Y-1147013D01*
G37*
G36*
X1455724Y-947724D02*
G01*
X1592275Y-947724D01*
X1598625Y-947013D01*
X1604060Y-945083D01*
X1608988Y-942035D01*
X1613052Y-937920D01*
X1616151Y-933043D01*
X1618030Y-927557D01*
X1618742Y-921258D01*
X1618742Y-809142D01*
X1618030Y-802792D01*
X1616151Y-797356D01*
X1613052Y-792480D01*
X1608988Y-788365D01*
X1604670Y-785672D01*
X1602130Y-783386D01*
X1600454Y-780389D01*
X1599895Y-777036D01*
X1599895Y-556463D01*
X1600454Y-553110D01*
X1602130Y-550113D01*
X1604670Y-547827D01*
X1608988Y-545134D01*
X1613052Y-541020D01*
X1616151Y-536143D01*
X1618030Y-530707D01*
X1618742Y-524357D01*
X1618742Y-412242D01*
X1618030Y-405942D01*
X1616151Y-400456D01*
X1613052Y-395579D01*
X1608988Y-391464D01*
X1604060Y-388416D01*
X1598625Y-386486D01*
X1592275Y-385775D01*
X1455724Y-385775D01*
X1449374Y-386486D01*
X1443939Y-388416D01*
X1439011Y-391464D01*
X1434947Y-395579D01*
X1431848Y-400456D01*
X1429969Y-405942D01*
X1429258Y-412242D01*
X1429258Y-478485D01*
X1428445Y-482396D01*
X1426260Y-485698D01*
X1404162Y-507796D01*
X1400759Y-510032D01*
X1396746Y-510793D01*
X1392783Y-509879D01*
X1389481Y-507492D01*
X1387398Y-503986D01*
X1386840Y-499922D01*
X1387144Y-495300D01*
X1386281Y-482396D01*
X1383741Y-469696D01*
X1379626Y-457454D01*
X1373886Y-445871D01*
X1366723Y-435101D01*
X1358188Y-425399D01*
X1348435Y-416864D01*
X1337716Y-409651D01*
X1326083Y-403961D01*
X1313840Y-399796D01*
X1301140Y-397256D01*
X1287932Y-396392D01*
X1252067Y-396392D01*
X1238859Y-397256D01*
X1226159Y-399796D01*
X1213916Y-403961D01*
X1202283Y-409651D01*
X1191514Y-416864D01*
X1188415Y-418744D01*
X1184808Y-419404D01*
X1014933Y-419455D01*
X1006094Y-420268D01*
X1003655Y-420674D01*
X995070Y-422808D01*
X992733Y-423570D01*
X984503Y-426974D01*
X982319Y-428091D01*
X972667Y-434136D01*
X965809Y-439775D01*
X879856Y-525678D01*
X876553Y-527862D01*
X872693Y-528675D01*
X833424Y-528675D01*
X827074Y-529386D01*
X821639Y-531266D01*
X816711Y-534365D01*
X812647Y-538480D01*
X809548Y-543356D01*
X807669Y-548792D01*
X806958Y-555142D01*
X806958Y-667258D01*
X807669Y-673557D01*
X809548Y-679043D01*
X812647Y-683920D01*
X816711Y-688035D01*
X821639Y-691083D01*
X827074Y-693013D01*
X833424Y-693724D01*
X969975Y-693724D01*
X976325Y-693013D01*
X981760Y-691083D01*
X986688Y-688035D01*
X990752Y-683920D01*
X993851Y-679043D01*
X995730Y-673557D01*
X996442Y-667258D01*
X996442Y-627989D01*
X997254Y-624128D01*
X999439Y-620826D01*
X1046073Y-574192D01*
X1049375Y-571957D01*
X1053236Y-571195D01*
X1184808Y-571195D01*
X1188415Y-571855D01*
X1191564Y-573735D01*
X1202283Y-580948D01*
X1213916Y-586638D01*
X1226159Y-590804D01*
X1238859Y-593344D01*
X1252067Y-594207D01*
X1287932Y-594207D01*
X1292910Y-593902D01*
X1296924Y-594410D01*
X1300429Y-596544D01*
X1302816Y-599846D01*
X1303731Y-603808D01*
X1302969Y-607822D01*
X1300734Y-611225D01*
X1264513Y-647395D01*
X1261262Y-649630D01*
X1257350Y-650392D01*
X1252067Y-650392D01*
X1238859Y-651256D01*
X1226159Y-653796D01*
X1213916Y-657961D01*
X1202283Y-663651D01*
X1191564Y-670864D01*
X1181811Y-679399D01*
X1173276Y-689102D01*
X1166114Y-699871D01*
X1160373Y-711454D01*
X1156258Y-723696D01*
X1153718Y-736396D01*
X1152855Y-749300D01*
X1153718Y-762203D01*
X1156258Y-774903D01*
X1160373Y-787146D01*
X1166114Y-798728D01*
X1173276Y-809498D01*
X1181811Y-819200D01*
X1191564Y-827735D01*
X1202283Y-834948D01*
X1213916Y-840638D01*
X1226159Y-844803D01*
X1238859Y-847344D01*
X1252067Y-848207D01*
X1287932Y-848207D01*
X1301140Y-847344D01*
X1313840Y-844803D01*
X1326083Y-840638D01*
X1337716Y-834948D01*
X1348486Y-827735D01*
X1351584Y-825855D01*
X1355191Y-825195D01*
X1361338Y-825195D01*
X1365250Y-825957D01*
X1368552Y-828192D01*
X1426260Y-885901D01*
X1428445Y-889203D01*
X1429258Y-893114D01*
X1429258Y-921258D01*
X1429969Y-927557D01*
X1431848Y-933043D01*
X1434947Y-937920D01*
X1439011Y-942035D01*
X1443939Y-945083D01*
X1449374Y-947013D01*
G37*
G36*
X5445048Y-867918D02*
G01*
X5603951Y-867918D01*
X5610250Y-867206D01*
X5615736Y-865276D01*
X5620613Y-862228D01*
X5624728Y-858113D01*
X5627776Y-853236D01*
X5629706Y-847750D01*
X5630418Y-841451D01*
X5630418Y-682548D01*
X5629706Y-676249D01*
X5627776Y-670763D01*
X5624728Y-665886D01*
X5620613Y-661771D01*
X5615736Y-658723D01*
X5610250Y-656793D01*
X5603951Y-656082D01*
X5445048Y-656082D01*
X5438749Y-656793D01*
X5433263Y-658723D01*
X5428386Y-661771D01*
X5424271Y-665886D01*
X5421223Y-670763D01*
X5419293Y-676249D01*
X5418582Y-682548D01*
X5418582Y-841451D01*
X5419293Y-847750D01*
X5421223Y-853236D01*
X5424271Y-858113D01*
X5428386Y-862228D01*
X5433263Y-865276D01*
X5438749Y-867206D01*
G37*
G36*
X5270500Y-867867D02*
G01*
X5284317Y-867003D01*
X5297881Y-864260D01*
X5311038Y-859840D01*
X5323433Y-853694D01*
X5334965Y-846023D01*
X5345379Y-836879D01*
X5354523Y-826465D01*
X5362194Y-814933D01*
X5368340Y-802538D01*
X5372760Y-789381D01*
X5375503Y-775817D01*
X5376367Y-762000D01*
X5375503Y-748182D01*
X5372760Y-734618D01*
X5368340Y-721461D01*
X5362194Y-709066D01*
X5354523Y-697534D01*
X5345379Y-687120D01*
X5334965Y-677976D01*
X5323433Y-670306D01*
X5311038Y-664159D01*
X5297881Y-659739D01*
X5284317Y-656996D01*
X5270500Y-656132D01*
X5256682Y-656996D01*
X5243118Y-659739D01*
X5229961Y-664159D01*
X5217566Y-670306D01*
X5206034Y-677976D01*
X5195620Y-687120D01*
X5186476Y-697534D01*
X5178806Y-709066D01*
X5172659Y-721461D01*
X5168239Y-734618D01*
X5165496Y-748182D01*
X5164632Y-762000D01*
X5165496Y-775817D01*
X5168239Y-789381D01*
X5172659Y-802538D01*
X5178806Y-814933D01*
X5186476Y-826465D01*
X5195620Y-836879D01*
X5206034Y-846023D01*
X5217566Y-853694D01*
X5229961Y-859840D01*
X5243118Y-864260D01*
X5256682Y-867003D01*
G37*
G36*
X5016500Y-867867D02*
G01*
X5030317Y-867003D01*
X5043881Y-864260D01*
X5057038Y-859840D01*
X5069433Y-853694D01*
X5080965Y-846023D01*
X5091379Y-836879D01*
X5100523Y-826465D01*
X5108194Y-814933D01*
X5114340Y-802538D01*
X5118760Y-789381D01*
X5121503Y-775817D01*
X5122367Y-762000D01*
X5121503Y-748182D01*
X5118760Y-734618D01*
X5114340Y-721461D01*
X5108194Y-709066D01*
X5100523Y-697534D01*
X5091379Y-687120D01*
X5080965Y-677976D01*
X5069433Y-670306D01*
X5057038Y-664159D01*
X5043881Y-659739D01*
X5030317Y-656996D01*
X5016500Y-656132D01*
X5002682Y-656996D01*
X4989118Y-659739D01*
X4975961Y-664159D01*
X4963566Y-670306D01*
X4952034Y-677976D01*
X4941620Y-687120D01*
X4932476Y-697534D01*
X4924806Y-709066D01*
X4918659Y-721461D01*
X4914239Y-734618D01*
X4911496Y-748182D01*
X4910632Y-762000D01*
X4911496Y-775817D01*
X4914239Y-789381D01*
X4918659Y-802538D01*
X4924806Y-814933D01*
X4932476Y-826465D01*
X4941620Y-836879D01*
X4952034Y-846023D01*
X4963566Y-853694D01*
X4975961Y-859840D01*
X4989118Y-864260D01*
X5002682Y-867003D01*
G37*
G36*
X3238500Y-867867D02*
G01*
X3252317Y-867003D01*
X3265881Y-864260D01*
X3279038Y-859840D01*
X3291433Y-853694D01*
X3302965Y-846023D01*
X3313379Y-836879D01*
X3322523Y-826465D01*
X3330194Y-814933D01*
X3336340Y-802538D01*
X3340760Y-789381D01*
X3343503Y-775817D01*
X3344367Y-762000D01*
X3343503Y-748182D01*
X3340760Y-734618D01*
X3336340Y-721461D01*
X3330194Y-709066D01*
X3324047Y-699820D01*
X3322472Y-695960D01*
X3314547Y-651662D01*
X3314395Y-649884D01*
X3314395Y-560933D01*
X3314598Y-559003D01*
X3342589Y-412851D01*
X3343148Y-407009D01*
X3343148Y-228092D01*
X3342436Y-221742D01*
X3340506Y-216306D01*
X3337458Y-211378D01*
X3333343Y-207314D01*
X3328466Y-204216D01*
X3322980Y-202285D01*
X3316681Y-201574D01*
X3160318Y-201574D01*
X3154019Y-202285D01*
X3148533Y-204216D01*
X3143656Y-207314D01*
X3139541Y-211378D01*
X3136493Y-216306D01*
X3134563Y-221742D01*
X3133852Y-228092D01*
X3133852Y-407009D01*
X3134410Y-412851D01*
X3162401Y-559003D01*
X3162604Y-560933D01*
X3162604Y-649884D01*
X3162452Y-651662D01*
X3154527Y-695960D01*
X3152952Y-699820D01*
X3146806Y-709066D01*
X3140659Y-721461D01*
X3136239Y-734618D01*
X3133496Y-748182D01*
X3132632Y-762000D01*
X3133496Y-775817D01*
X3136239Y-789381D01*
X3140659Y-802538D01*
X3146806Y-814933D01*
X3154476Y-826465D01*
X3163620Y-836879D01*
X3174034Y-846023D01*
X3185566Y-853694D01*
X3197961Y-859840D01*
X3211118Y-864260D01*
X3224682Y-867003D01*
G37*
G36*
X4508500Y-867867D02*
G01*
X4522317Y-867003D01*
X4535881Y-864260D01*
X4549038Y-859840D01*
X4561433Y-853694D01*
X4572965Y-846023D01*
X4583379Y-836879D01*
X4592523Y-826465D01*
X4600194Y-814933D01*
X4606340Y-802538D01*
X4610760Y-789381D01*
X4613503Y-775817D01*
X4614367Y-762000D01*
X4613503Y-748182D01*
X4610760Y-734618D01*
X4606340Y-721461D01*
X4600194Y-709066D01*
X4594047Y-699820D01*
X4592472Y-695960D01*
X4584547Y-651662D01*
X4584395Y-649884D01*
X4584395Y-437337D01*
X4584649Y-435051D01*
X4595622Y-387604D01*
X4596993Y-384352D01*
X4605121Y-371906D01*
X4611268Y-359105D01*
X4615738Y-345643D01*
X4618482Y-331673D01*
X4619396Y-317500D01*
X4618482Y-303326D01*
X4615738Y-289356D01*
X4611268Y-275894D01*
X4605121Y-263093D01*
X4597349Y-251155D01*
X4588154Y-240334D01*
X4577638Y-230784D01*
X4566005Y-222656D01*
X4553407Y-216103D01*
X4540046Y-211175D01*
X4526178Y-208025D01*
X4512056Y-206654D01*
X4497832Y-207111D01*
X4483811Y-209397D01*
X4470196Y-213461D01*
X4457192Y-219202D01*
X4445050Y-226567D01*
X4433925Y-235407D01*
X4424070Y-245617D01*
X4415586Y-256997D01*
X4408576Y-269392D01*
X4403242Y-282549D01*
X4399635Y-296316D01*
X4397857Y-310388D01*
X4397857Y-324612D01*
X4399635Y-338683D01*
X4403242Y-352450D01*
X4408576Y-365607D01*
X4415586Y-378002D01*
X4419498Y-383235D01*
X4421225Y-386994D01*
X4432350Y-435051D01*
X4432604Y-437337D01*
X4432604Y-649884D01*
X4432452Y-651662D01*
X4424527Y-695960D01*
X4422952Y-699820D01*
X4416806Y-709066D01*
X4410659Y-721461D01*
X4406239Y-734618D01*
X4403496Y-748182D01*
X4402632Y-762000D01*
X4403496Y-775817D01*
X4406239Y-789381D01*
X4410659Y-802538D01*
X4416806Y-814933D01*
X4424476Y-826465D01*
X4433620Y-836879D01*
X4444034Y-846023D01*
X4455566Y-853694D01*
X4467961Y-859840D01*
X4481118Y-864260D01*
X4494682Y-867003D01*
G37*
G36*
X3492500Y-867867D02*
G01*
X3506317Y-867003D01*
X3519881Y-864260D01*
X3533038Y-859840D01*
X3545433Y-853694D01*
X3556965Y-846023D01*
X3567379Y-836879D01*
X3576523Y-826465D01*
X3584194Y-814933D01*
X3590340Y-802538D01*
X3594760Y-789381D01*
X3597503Y-775817D01*
X3598367Y-762000D01*
X3597503Y-748182D01*
X3594760Y-734618D01*
X3590340Y-721461D01*
X3584194Y-709066D01*
X3578047Y-699820D01*
X3576472Y-695960D01*
X3568547Y-651662D01*
X3568395Y-649884D01*
X3568395Y-444957D01*
X3568801Y-442214D01*
X3583025Y-390906D01*
X3585006Y-387146D01*
X3586276Y-385622D01*
X3594049Y-373329D01*
X3600246Y-360172D01*
X3604768Y-346303D01*
X3607460Y-332028D01*
X3608374Y-317500D01*
X3607460Y-302971D01*
X3604768Y-288696D01*
X3600246Y-274828D01*
X3594049Y-261670D01*
X3586276Y-249377D01*
X3576980Y-238150D01*
X3566363Y-228193D01*
X3554577Y-219659D01*
X3541826Y-212648D01*
X3528314Y-207264D01*
X3514191Y-203657D01*
X3499764Y-201828D01*
X3485235Y-201828D01*
X3470808Y-203657D01*
X3456686Y-207264D01*
X3443173Y-212648D01*
X3430422Y-219659D01*
X3418636Y-228193D01*
X3408019Y-238150D01*
X3398723Y-249377D01*
X3390950Y-261670D01*
X3384753Y-274828D01*
X3380232Y-288696D01*
X3377539Y-302971D01*
X3376625Y-317500D01*
X3377539Y-332028D01*
X3380232Y-346303D01*
X3384753Y-360172D01*
X3390950Y-373329D01*
X3398723Y-385622D01*
X3399993Y-387146D01*
X3401974Y-390906D01*
X3416198Y-442214D01*
X3416604Y-444957D01*
X3416604Y-649884D01*
X3416452Y-651662D01*
X3408527Y-695960D01*
X3406952Y-699820D01*
X3400806Y-709066D01*
X3394659Y-721461D01*
X3390239Y-734618D01*
X3387496Y-748182D01*
X3386632Y-762000D01*
X3387496Y-775817D01*
X3390239Y-789381D01*
X3394659Y-802538D01*
X3400806Y-814933D01*
X3408476Y-826465D01*
X3417620Y-836879D01*
X3428034Y-846023D01*
X3439566Y-853694D01*
X3451961Y-859840D01*
X3465118Y-864260D01*
X3478682Y-867003D01*
G37*
G36*
X3746500Y-867867D02*
G01*
X3760317Y-867003D01*
X3773881Y-864260D01*
X3787038Y-859840D01*
X3799433Y-853694D01*
X3810965Y-846023D01*
X3821379Y-836879D01*
X3830523Y-826465D01*
X3838194Y-814933D01*
X3844340Y-802538D01*
X3848760Y-789381D01*
X3851503Y-775817D01*
X3852367Y-762000D01*
X3851503Y-748182D01*
X3848760Y-734618D01*
X3844340Y-721461D01*
X3838194Y-709066D01*
X3832047Y-699820D01*
X3830472Y-695960D01*
X3822547Y-651662D01*
X3822395Y-649884D01*
X3822395Y-444957D01*
X3822801Y-442214D01*
X3837025Y-390906D01*
X3839006Y-387146D01*
X3840276Y-385622D01*
X3848049Y-373329D01*
X3854246Y-360172D01*
X3858768Y-346303D01*
X3861460Y-332028D01*
X3862374Y-317500D01*
X3861460Y-302971D01*
X3858768Y-288696D01*
X3854246Y-274828D01*
X3848049Y-261670D01*
X3840276Y-249377D01*
X3830980Y-238150D01*
X3820363Y-228193D01*
X3808577Y-219659D01*
X3795826Y-212648D01*
X3782314Y-207264D01*
X3768191Y-203657D01*
X3753764Y-201828D01*
X3739235Y-201828D01*
X3724808Y-203657D01*
X3710686Y-207264D01*
X3697173Y-212648D01*
X3684422Y-219659D01*
X3672636Y-228193D01*
X3662019Y-238150D01*
X3652723Y-249377D01*
X3644950Y-261670D01*
X3638753Y-274828D01*
X3634232Y-288696D01*
X3631539Y-302971D01*
X3630625Y-317500D01*
X3631539Y-332028D01*
X3634232Y-346303D01*
X3638753Y-360172D01*
X3644950Y-373329D01*
X3652723Y-385622D01*
X3653993Y-387146D01*
X3655974Y-390906D01*
X3670198Y-442214D01*
X3670604Y-444957D01*
X3670604Y-649884D01*
X3670452Y-651662D01*
X3662527Y-695960D01*
X3660952Y-699820D01*
X3654806Y-709066D01*
X3648659Y-721461D01*
X3644239Y-734618D01*
X3641496Y-748182D01*
X3640632Y-762000D01*
X3641496Y-775817D01*
X3644239Y-789381D01*
X3648659Y-802538D01*
X3654806Y-814933D01*
X3662476Y-826465D01*
X3671620Y-836879D01*
X3682034Y-846023D01*
X3693566Y-853694D01*
X3705961Y-859840D01*
X3719118Y-864260D01*
X3732682Y-867003D01*
G37*
G36*
X4000500Y-867867D02*
G01*
X4014317Y-867003D01*
X4027881Y-864260D01*
X4041038Y-859840D01*
X4053433Y-853694D01*
X4064965Y-846023D01*
X4075379Y-836879D01*
X4084523Y-826465D01*
X4092194Y-814933D01*
X4098340Y-802538D01*
X4102760Y-789381D01*
X4105503Y-775817D01*
X4106367Y-762000D01*
X4105503Y-748182D01*
X4102760Y-734618D01*
X4098340Y-721461D01*
X4092194Y-709066D01*
X4086047Y-699820D01*
X4084472Y-695960D01*
X4076547Y-651662D01*
X4076395Y-649884D01*
X4076395Y-429361D01*
X4077157Y-425450D01*
X4079392Y-422148D01*
X4093616Y-407924D01*
X4096816Y-405790D01*
X4100576Y-404977D01*
X4104386Y-405638D01*
X4160012Y-426618D01*
X4163517Y-427685D01*
X4170070Y-428396D01*
X4338929Y-428396D01*
X4345228Y-427685D01*
X4350715Y-425805D01*
X4355592Y-422706D01*
X4359706Y-418592D01*
X4362805Y-413715D01*
X4364685Y-408228D01*
X4365396Y-401929D01*
X4365396Y-233070D01*
X4364685Y-226771D01*
X4362805Y-221284D01*
X4359706Y-216408D01*
X4355592Y-212293D01*
X4350715Y-209194D01*
X4345228Y-207314D01*
X4338929Y-206603D01*
X4170070Y-206603D01*
X4163517Y-207314D01*
X4160012Y-208381D01*
X4072382Y-241452D01*
X4070045Y-242011D01*
X4062526Y-242925D01*
X4054144Y-245008D01*
X4051808Y-245770D01*
X4043578Y-249174D01*
X4041394Y-250291D01*
X4033774Y-254914D01*
X4024934Y-261975D01*
X3944975Y-341934D01*
X3937914Y-350774D01*
X3933291Y-358394D01*
X3932174Y-360578D01*
X3928770Y-368808D01*
X3928008Y-371144D01*
X3925874Y-379780D01*
X3925468Y-382219D01*
X3924655Y-391058D01*
X3924604Y-649884D01*
X3924452Y-651662D01*
X3916527Y-695960D01*
X3914952Y-699820D01*
X3908806Y-709066D01*
X3902659Y-721461D01*
X3898239Y-734618D01*
X3895496Y-748182D01*
X3894632Y-762000D01*
X3895496Y-775817D01*
X3898239Y-789381D01*
X3902659Y-802538D01*
X3908806Y-814933D01*
X3916476Y-826465D01*
X3925620Y-836879D01*
X3936034Y-846023D01*
X3947566Y-853694D01*
X3959961Y-859840D01*
X3973118Y-864260D01*
X3986682Y-867003D01*
G37*
G36*
X1922170Y-856945D02*
G01*
X1922170Y-808329D01*
X1873554Y-808329D01*
X1876806Y-814933D01*
X1884476Y-826465D01*
X1893620Y-836879D01*
X1904034Y-846023D01*
X1915566Y-853694D01*
G37*
G36*
X2522829Y-856945D02*
G01*
X2529433Y-853694D01*
X2540965Y-846023D01*
X2551379Y-836879D01*
X2560523Y-826465D01*
X2568194Y-814933D01*
X2571445Y-808329D01*
X2522829Y-808329D01*
G37*
G36*
X2430170Y-856945D02*
G01*
X2430170Y-808329D01*
X2381554Y-808329D01*
X2384806Y-814933D01*
X2392476Y-826465D01*
X2401620Y-836879D01*
X2412034Y-846023D01*
X2423566Y-853694D01*
G37*
G36*
X2684170Y-856945D02*
G01*
X2684170Y-808329D01*
X2635554Y-808329D01*
X2638806Y-814933D01*
X2646476Y-826465D01*
X2655620Y-836879D01*
X2666034Y-846023D01*
X2677566Y-853694D01*
G37*
G36*
X2268829Y-856945D02*
G01*
X2275433Y-853694D01*
X2286965Y-846023D01*
X2297379Y-836879D01*
X2306523Y-826465D01*
X2314194Y-814933D01*
X2317445Y-808329D01*
X2268829Y-808329D01*
G37*
G36*
X2938170Y-856945D02*
G01*
X2938170Y-808329D01*
X2889554Y-808329D01*
X2892806Y-814933D01*
X2900476Y-826465D01*
X2909620Y-836879D01*
X2920034Y-846023D01*
X2931566Y-853694D01*
G37*
G36*
X2014829Y-856945D02*
G01*
X2021433Y-853694D01*
X2032965Y-846023D01*
X2043379Y-836879D01*
X2052523Y-826465D01*
X2060193Y-814933D01*
X2063445Y-808329D01*
X2014829Y-808329D01*
G37*
G36*
X4716170Y-856945D02*
G01*
X4716170Y-808329D01*
X4667554Y-808329D01*
X4670806Y-814933D01*
X4678476Y-826465D01*
X4687620Y-836879D01*
X4698034Y-846023D01*
X4709566Y-853694D01*
G37*
G36*
X2776829Y-856945D02*
G01*
X2783433Y-853694D01*
X2794965Y-846023D01*
X2805379Y-836879D01*
X2814523Y-826465D01*
X2822194Y-814933D01*
X2825445Y-808329D01*
X2776829Y-808329D01*
G37*
G36*
X2176170Y-856945D02*
G01*
X2176170Y-808329D01*
X2127554Y-808329D01*
X2130806Y-814933D01*
X2138476Y-826465D01*
X2147620Y-836879D01*
X2158034Y-846023D01*
X2169566Y-853694D01*
G37*
G36*
X3030829Y-856945D02*
G01*
X3037433Y-853694D01*
X3048965Y-846023D01*
X3059379Y-836879D01*
X3068523Y-826465D01*
X3076194Y-814933D01*
X3079445Y-808329D01*
X3030829Y-808329D01*
G37*
G36*
X4808829Y-856945D02*
G01*
X4815433Y-853694D01*
X4826965Y-846023D01*
X4837379Y-836879D01*
X4846523Y-826465D01*
X4854194Y-814933D01*
X4857445Y-808329D01*
X4808829Y-808329D01*
G37*
G36*
X490067Y-848207D02*
G01*
X525932Y-848207D01*
X539140Y-847344D01*
X551840Y-844803D01*
X564083Y-840638D01*
X575716Y-834948D01*
X586435Y-827735D01*
X596188Y-819200D01*
X604723Y-809498D01*
X611886Y-798728D01*
X617626Y-787146D01*
X621741Y-774903D01*
X624281Y-762203D01*
X625144Y-749300D01*
X624281Y-736396D01*
X621741Y-723696D01*
X617626Y-711454D01*
X611886Y-699871D01*
X604723Y-689102D01*
X596188Y-679399D01*
X586435Y-670864D01*
X575716Y-663651D01*
X564083Y-657961D01*
X551840Y-653796D01*
X539140Y-651256D01*
X525932Y-650392D01*
X490067Y-650392D01*
X476859Y-651256D01*
X464159Y-653796D01*
X451916Y-657961D01*
X440283Y-663651D01*
X429564Y-670864D01*
X419811Y-679399D01*
X411276Y-689102D01*
X404114Y-699871D01*
X398373Y-711454D01*
X394258Y-723696D01*
X391718Y-736396D01*
X390855Y-749300D01*
X391718Y-762203D01*
X394258Y-774903D01*
X398373Y-787146D01*
X404114Y-798728D01*
X411276Y-809498D01*
X419811Y-819200D01*
X429564Y-827735D01*
X440283Y-834948D01*
X451916Y-840638D01*
X464159Y-844803D01*
X476859Y-847344D01*
G37*
G36*
X1873554Y-715670D02*
G01*
X1922170Y-715670D01*
X1922170Y-667054D01*
X1915566Y-670306D01*
X1904034Y-677976D01*
X1893620Y-687120D01*
X1884476Y-697534D01*
X1876806Y-709066D01*
G37*
G36*
X2522829Y-715670D02*
G01*
X2571445Y-715670D01*
X2568194Y-709066D01*
X2560523Y-697534D01*
X2551379Y-687120D01*
X2540965Y-677976D01*
X2529433Y-670306D01*
X2522829Y-667054D01*
G37*
G36*
X2381554Y-715670D02*
G01*
X2430170Y-715670D01*
X2430170Y-667054D01*
X2423566Y-670306D01*
X2412034Y-677976D01*
X2401620Y-687120D01*
X2392476Y-697534D01*
X2384806Y-709066D01*
G37*
G36*
X2635554Y-715670D02*
G01*
X2684170Y-715670D01*
X2684170Y-667054D01*
X2677566Y-670306D01*
X2666034Y-677976D01*
X2655620Y-687120D01*
X2646476Y-697534D01*
X2638806Y-709066D01*
G37*
G36*
X2268829Y-715670D02*
G01*
X2317445Y-715670D01*
X2314194Y-709066D01*
X2306523Y-697534D01*
X2297379Y-687120D01*
X2286965Y-677976D01*
X2275433Y-670306D01*
X2268829Y-667054D01*
G37*
G36*
X2889554Y-715670D02*
G01*
X2938170Y-715670D01*
X2938170Y-667054D01*
X2931566Y-670306D01*
X2920034Y-677976D01*
X2909620Y-687120D01*
X2900476Y-697534D01*
X2892806Y-709066D01*
G37*
G36*
X2014829Y-715670D02*
G01*
X2063445Y-715670D01*
X2060193Y-709066D01*
X2052523Y-697534D01*
X2043379Y-687120D01*
X2032965Y-677976D01*
X2021433Y-670306D01*
X2014829Y-667054D01*
G37*
G36*
X4667554Y-715670D02*
G01*
X4716170Y-715670D01*
X4716170Y-667054D01*
X4709566Y-670306D01*
X4698034Y-677976D01*
X4687620Y-687120D01*
X4678476Y-697534D01*
X4670806Y-709066D01*
G37*
G36*
X2776829Y-715670D02*
G01*
X2825445Y-715670D01*
X2822194Y-709066D01*
X2814523Y-697534D01*
X2805379Y-687120D01*
X2794965Y-677976D01*
X2783433Y-670306D01*
X2776829Y-667054D01*
G37*
G36*
X2127554Y-715670D02*
G01*
X2176170Y-715670D01*
X2176170Y-667054D01*
X2169566Y-670306D01*
X2158034Y-677976D01*
X2147620Y-687120D01*
X2138476Y-697534D01*
X2130806Y-709066D01*
G37*
G36*
X4808829Y-715670D02*
G01*
X4857445Y-715670D01*
X4854194Y-709066D01*
X4846523Y-697534D01*
X4837379Y-687120D01*
X4826965Y-677976D01*
X4815433Y-670306D01*
X4808829Y-667054D01*
G37*
G36*
X3030829Y-715670D02*
G01*
X3079445Y-715670D01*
X3076194Y-709066D01*
X3068523Y-697534D01*
X3059379Y-687120D01*
X3048965Y-677976D01*
X3037433Y-670306D01*
X3030829Y-667054D01*
G37*
G36*
X490067Y-594207D02*
G01*
X525932Y-594207D01*
X539140Y-593344D01*
X551840Y-590804D01*
X564083Y-586638D01*
X575716Y-580948D01*
X586435Y-573735D01*
X596188Y-565200D01*
X604723Y-555498D01*
X611886Y-544728D01*
X617626Y-533146D01*
X621741Y-520903D01*
X624281Y-508203D01*
X625144Y-495300D01*
X624281Y-482396D01*
X621741Y-469696D01*
X617626Y-457454D01*
X611886Y-445871D01*
X604723Y-435101D01*
X596188Y-425399D01*
X586435Y-416864D01*
X575716Y-409651D01*
X564083Y-403961D01*
X551840Y-399796D01*
X539140Y-397256D01*
X525932Y-396392D01*
X490067Y-396392D01*
X476859Y-397256D01*
X464159Y-399796D01*
X451916Y-403961D01*
X440283Y-409651D01*
X429564Y-416864D01*
X419811Y-425399D01*
X411276Y-435101D01*
X404114Y-445871D01*
X398373Y-457454D01*
X394258Y-469696D01*
X391718Y-482396D01*
X390855Y-495300D01*
X391718Y-508203D01*
X394258Y-520903D01*
X398373Y-533146D01*
X404114Y-544728D01*
X411276Y-555498D01*
X419811Y-565200D01*
X429564Y-573735D01*
X440283Y-580948D01*
X451916Y-586638D01*
X464159Y-590804D01*
X476859Y-593344D01*
G37*
G36*
X2004517Y-475843D02*
G01*
X2022602Y-474421D01*
X2040382Y-471170D01*
X2057806Y-466140D01*
X2074570Y-459282D01*
X2090521Y-450799D01*
X2105558Y-440690D01*
X2119477Y-429107D01*
X2132126Y-416102D01*
X2143353Y-401929D01*
X2153056Y-386638D01*
X2161184Y-370433D01*
X2167534Y-353466D01*
X2172157Y-335991D01*
X2174951Y-318109D01*
X2175865Y-300024D01*
X2174951Y-281889D01*
X2172157Y-264007D01*
X2167534Y-246532D01*
X2161184Y-229565D01*
X2153056Y-213360D01*
X2143353Y-198069D01*
X2132126Y-183896D01*
X2119477Y-170891D01*
X2105558Y-159308D01*
X2090521Y-149199D01*
X2074570Y-140716D01*
X2057806Y-133858D01*
X2040382Y-128828D01*
X2022602Y-125577D01*
X2004517Y-124155D01*
X1986432Y-124612D01*
X1968449Y-126949D01*
X1950821Y-131114D01*
X1933752Y-137058D01*
X1917344Y-144729D01*
X1901799Y-154076D01*
X1887321Y-164947D01*
X1874012Y-177241D01*
X1862074Y-190855D01*
X1851558Y-205587D01*
X1842668Y-221335D01*
X1835404Y-237947D01*
X1829917Y-255219D01*
X1826209Y-272948D01*
X1824329Y-290931D01*
X1824329Y-309067D01*
X1826209Y-327050D01*
X1829917Y-344779D01*
X1835404Y-362051D01*
X1842668Y-378663D01*
X1851558Y-394411D01*
X1862074Y-409143D01*
X1874012Y-422757D01*
X1887321Y-435051D01*
X1901799Y-445922D01*
X1917344Y-455269D01*
X1933752Y-462940D01*
X1950821Y-468884D01*
X1968449Y-473049D01*
X1986432Y-475386D01*
G37*
G36*
X4713630Y-416915D02*
G01*
X4713630Y-366369D01*
X4663033Y-366369D01*
X4669586Y-378002D01*
X4678070Y-389382D01*
X4687925Y-399592D01*
X4699050Y-408432D01*
X4711192Y-415798D01*
G37*
G36*
X4811369Y-416814D02*
G01*
X4820005Y-412343D01*
X4831638Y-404215D01*
X4842154Y-394665D01*
X4851349Y-383844D01*
X4859121Y-371906D01*
X4861814Y-366369D01*
X4811369Y-366369D01*
G37*
G36*
X1455724Y-350824D02*
G01*
X1483207Y-350824D01*
X1483207Y-302971D01*
X1429258Y-302971D01*
X1429258Y-324358D01*
X1429969Y-330657D01*
X1431848Y-336143D01*
X1434947Y-341020D01*
X1439011Y-345135D01*
X1443939Y-348183D01*
X1449374Y-350113D01*
G37*
G36*
X1564792Y-350824D02*
G01*
X1592275Y-350824D01*
X1598625Y-350113D01*
X1604060Y-348183D01*
X1608988Y-345135D01*
X1613052Y-341020D01*
X1616151Y-336143D01*
X1618030Y-330657D01*
X1618742Y-324358D01*
X1618742Y-302971D01*
X1564792Y-302971D01*
G37*
G36*
X490067Y-340207D02*
G01*
X525932Y-340207D01*
X539140Y-339344D01*
X551840Y-336804D01*
X564083Y-332638D01*
X575716Y-326948D01*
X586435Y-319735D01*
X596188Y-311200D01*
X604723Y-301498D01*
X611886Y-290728D01*
X617626Y-279146D01*
X621741Y-266903D01*
X624281Y-254203D01*
X625144Y-241300D01*
X624281Y-228396D01*
X621741Y-215696D01*
X617626Y-203454D01*
X611886Y-191871D01*
X604723Y-181102D01*
X596188Y-171399D01*
X586435Y-162864D01*
X575716Y-155651D01*
X564083Y-149961D01*
X551840Y-145796D01*
X539140Y-143256D01*
X525932Y-142392D01*
X490067Y-142392D01*
X476859Y-143256D01*
X464159Y-145796D01*
X451916Y-149961D01*
X440283Y-155651D01*
X429564Y-162864D01*
X419811Y-171399D01*
X411276Y-181102D01*
X404114Y-191871D01*
X398373Y-203454D01*
X394258Y-215696D01*
X391718Y-228396D01*
X390855Y-241300D01*
X391718Y-254203D01*
X394258Y-266903D01*
X398373Y-279146D01*
X404114Y-290728D01*
X411276Y-301498D01*
X419811Y-311200D01*
X429564Y-319735D01*
X440283Y-326948D01*
X451916Y-332638D01*
X464159Y-336804D01*
X476859Y-339344D01*
G37*
G36*
X1321968Y-334060D02*
G01*
X1326083Y-332638D01*
X1337716Y-326948D01*
X1348435Y-319735D01*
X1358188Y-311200D01*
X1366723Y-301498D01*
X1373886Y-290728D01*
X1377137Y-284175D01*
X1321968Y-284175D01*
G37*
G36*
X1218031Y-334060D02*
G01*
X1218031Y-284175D01*
X1162862Y-284175D01*
X1166114Y-290728D01*
X1173276Y-301498D01*
X1181811Y-311200D01*
X1191564Y-319735D01*
X1202283Y-326948D01*
X1213916Y-332638D01*
G37*
G36*
X4811369Y-268630D02*
G01*
X4861814Y-268630D01*
X4859121Y-263093D01*
X4851349Y-251155D01*
X4842154Y-240334D01*
X4831638Y-230784D01*
X4820005Y-222656D01*
X4811369Y-218186D01*
G37*
G36*
X4663033Y-268630D02*
G01*
X4713630Y-268630D01*
X4713630Y-218084D01*
X4711192Y-219202D01*
X4699050Y-226567D01*
X4687925Y-235407D01*
X4678070Y-245617D01*
X4669586Y-256997D01*
G37*
G36*
X1564792Y-233629D02*
G01*
X1618742Y-233629D01*
X1618742Y-212242D01*
X1618030Y-205892D01*
X1616151Y-200456D01*
X1613052Y-195580D01*
X1608988Y-191465D01*
X1604060Y-188366D01*
X1598625Y-186486D01*
X1592275Y-185775D01*
X1564792Y-185775D01*
G37*
G36*
X1429258Y-233629D02*
G01*
X1483207Y-233629D01*
X1483207Y-185775D01*
X1455724Y-185775D01*
X1449374Y-186486D01*
X1443939Y-188366D01*
X1439011Y-191465D01*
X1434947Y-195580D01*
X1431848Y-200456D01*
X1429969Y-205892D01*
X1429258Y-212242D01*
G37*
G36*
X1321968Y-198475D02*
G01*
X1377137Y-198475D01*
X1373886Y-191871D01*
X1366723Y-181102D01*
X1358188Y-171399D01*
X1348435Y-162864D01*
X1337716Y-155651D01*
X1326083Y-149961D01*
X1321968Y-148539D01*
G37*
G36*
X1162862Y-198475D02*
G01*
X1218031Y-198475D01*
X1218031Y-148539D01*
X1213916Y-149961D01*
X1202283Y-155651D01*
X1191564Y-162864D01*
X1181811Y-171399D01*
X1173276Y-181102D01*
X1166114Y-191871D01*
G37*

%LPD*%
G36*
X4620666Y-3242005D02*
G01*
X4564684Y-3252012D01*
X4564684Y-3351987D01*
X4620666Y-3361994D01*
G37*
G36*
X4726533Y-3242005D02*
G01*
X4726533Y-3361994D01*
X4782515Y-3351987D01*
X4782515Y-3252012D01*
G37*
G36*
X3696512Y-2576677D02*
G01*
X3682746Y-2636164D01*
X3810254Y-2636164D01*
X3796487Y-2576677D01*
G37*
G36*
X3428746Y-2748635D02*
G01*
X3442512Y-2808122D01*
X3542487Y-2808122D01*
X3556254Y-2748635D01*
G37*
G36*
X4444746Y-373735D02*
G01*
X4458512Y-433222D01*
X4558487Y-433222D01*
X4572254Y-373735D01*
G37*
G36*
X5072735Y-253746D02*
G01*
X5072735Y-381254D01*
X5132222Y-367487D01*
X5132222Y-267512D01*
G37*
G36*
X3678986Y-377037D02*
G01*
X3696512Y-440029D01*
X3796487Y-440029D01*
X3814013Y-377037D01*
G37*
G36*
X3424986Y-377037D02*
G01*
X3442512Y-440029D01*
X3542487Y-440029D01*
X3560013Y-377037D01*
G37*
G36*
X5255158Y-3227019D02*
G01*
X5185156Y-3252012D01*
X5185156Y-3351987D01*
X5255158Y-3376980D01*
G37*
G36*
X5387441Y-3227019D02*
G01*
X5387441Y-3376980D01*
X5457444Y-3351987D01*
X5457444Y-3252012D01*
G37*
G36*
X3686505Y-2338933D02*
G01*
X3696512Y-2394915D01*
X3796487Y-2394915D01*
X3806494Y-2338933D01*
G37*
G36*
X3940505Y-2338933D02*
G01*
X3950512Y-2394915D01*
X4050487Y-2394915D01*
X4060494Y-2338933D01*
G37*
G36*
X5566156Y-2173630D02*
G01*
X5519470Y-2206142D01*
X5604357Y-2290978D01*
X5636869Y-2244344D01*
G37*
G36*
X5464505Y-2338933D02*
G01*
X5474512Y-2394915D01*
X5574487Y-2394915D01*
X5584494Y-2338933D01*
G37*
G36*
X4458512Y-653084D02*
G01*
X4448505Y-709066D01*
X4568494Y-709066D01*
X4558487Y-653084D01*
G37*
G36*
X4194505Y-814933D02*
G01*
X4204512Y-870915D01*
X4304487Y-870915D01*
X4314494Y-814933D01*
G37*
G36*
X3950512Y-653084D02*
G01*
X3940505Y-709066D01*
X4060494Y-709066D01*
X4050487Y-653084D01*
G37*
G36*
X3696512Y-653084D02*
G01*
X3686505Y-709066D01*
X3806494Y-709066D01*
X3796487Y-653084D01*
G37*
G36*
X3442512Y-653084D02*
G01*
X3432505Y-709066D01*
X3552494Y-709066D01*
X3542487Y-653084D01*
G37*
G36*
X3188512Y-653084D02*
G01*
X3178505Y-709066D01*
X3298494Y-709066D01*
X3288487Y-653084D01*
G37*
G36*
X3950512Y-2457399D02*
G01*
X3915511Y-2607411D01*
X4085488Y-2607411D01*
X4050487Y-2457399D01*
G37*
G36*
X4169511Y-232511D02*
G01*
X4076700Y-267512D01*
X4076700Y-367487D01*
X4169511Y-402488D01*
G37*
G36*
X3159760Y-407517D02*
G01*
X3188512Y-557479D01*
X3288487Y-557479D01*
X3317240Y-407517D01*
G37*
D10*
X792838Y-3663038D02*
G01*
X929711Y-3663038D01*
X1092756Y-3499993D01*
X457200Y-3132962D02*
G01*
X457200Y-3327400D01*
X927100Y-3797300D01*
X1332712Y-3797300D01*
X1630019Y-3499993D01*
X457200Y-3132962D02*
G01*
X457200Y-3352800D01*
X609600Y-3505200D01*
X1064780Y-3505200D01*
X1069987Y-3499993D01*
D11*
X4673600Y-3302000D02*
G01*
X3822700Y-3302000D01*
X3492500Y-2971800D01*
X3746500Y-2692400D02*
G01*
X3746500Y-2285994D01*
D10*
X457200Y-2632837D02*
G01*
X127000Y-2628900D01*
X127000Y-2755900D01*
X266700Y-2832100D01*
X1023873Y-2832100D01*
X457200Y-2632963D02*
G01*
X461263Y-2628900D01*
X927100Y-2628900D01*
X1023873Y-2725673D01*
X1023873Y-2794000D01*
X1257300Y-2997200D01*
X2003043Y-2997200D01*
X2482850Y-3477005D01*
X2482850Y-3632200D01*
X2002955Y-2997200D02*
G01*
X2313901Y-2997200D01*
X2816694Y-3499993D01*
X3154004Y-3499993D01*
X3154004Y-3769413D02*
G01*
X3070913Y-3769413D01*
X2933700Y-3632200D01*
X2336800Y-3632200D01*
X2197100Y-3492500D01*
X2197100Y-3487679D01*
X1706620Y-2997200D01*
X1069987Y-3499993D02*
G01*
X1092756Y-3499993D01*
X1377363Y-3784600D01*
X1630006Y-3499993D02*
G01*
X1630006Y-3588400D01*
X1433807Y-3784600D01*
X457200Y-3132962D02*
G01*
X457200Y-3215335D01*
X747064Y-3505200D01*
X457200Y-3132962D02*
G01*
X702957Y-3132962D01*
X1069987Y-3499993D01*
X3154004Y-3499993D02*
G01*
X3154004Y-3873500D01*
X2967492Y-3873500D01*
X2593985Y-3499993D01*
X1069987Y-3499993D02*
G01*
X1630006Y-3499993D01*
D11*
X5016500Y-317500D02*
G01*
X5575300Y-317500D01*
X5778500Y-520700D01*
X5778500Y-2031994D01*
X5524500Y-2285994D01*
X4673600Y-3302000D02*
G01*
X5321300Y-3302000D01*
X5524500Y-2285994D02*
G01*
X5524500Y-3302000D01*
X5321300Y-3302000D01*
X4000500Y-2285994D02*
G01*
X4000500Y-2692400D01*
X3492500Y-2692400D02*
G01*
X3492500Y-2971800D01*
X4025900Y-1066800D02*
G01*
X4102100Y-1066800D01*
X4254500Y-914400D01*
X4254500Y-762000D01*
X4000500Y-762000D02*
G01*
X4000500Y-393700D01*
X4076700Y-317500D01*
X4254500Y-317500D01*
X4508500Y-317500D02*
G01*
X4508500Y-762000D01*
X3746500Y-317500D02*
G01*
X3746500Y-762000D01*
X3492500Y-317500D02*
G01*
X3492500Y-762000D01*
X3238500Y-317500D02*
G01*
X3238500Y-762000D01*
X444500Y-1489837D02*
G01*
X669162Y-1489837D01*
X901700Y-1257300D01*
X901700Y-811199D01*
X901700Y-611200D02*
G01*
X1017600Y-495300D01*
X1270000Y-495300D01*
X1524000Y-468299D02*
G01*
X1524000Y-865200D01*
X1270000Y-1003300D02*
G01*
X1331899Y-1065199D01*
X1524000Y-1065199D01*
X1524000Y-1065199D02*
G01*
X4025900Y-1065199D01*
X177800Y-1155700D02*
G01*
X177800Y-1511300D01*
X406400Y-1739900D01*
X965200Y-1739900D01*
X1028700Y-1803400D01*
X1028700Y-2057400D01*
X1536700Y-2565400D01*
X2590800Y-2565400D01*
X2997200Y-2971800D01*
X3492500Y-2971800D01*
X508000Y-1003300D02*
G01*
X328909Y-1003300D01*
X177800Y-1154409D01*
X1270000Y-749300D02*
G01*
X1436067Y-749300D01*
X1524000Y-661367D01*
D12*
G01*
X901700Y-611200D03*
D13*
G01*
X901700Y-811204D03*
D12*
G01*
X1524000Y-1065199D03*
D13*
G01*
X1524000Y-865195D03*
D12*
G01*
X1524000Y-268300D03*
D13*
G01*
X1524000Y-468304D03*
D14*
G01*
X4673600Y-3302000D03*
G01*
X4673600Y-3048000D03*
D15*
G01*
X2593975Y-3499993D03*
G01*
X3153994Y-3499993D03*
G01*
X1630019Y-3499993D03*
G01*
X1070000Y-3499993D03*
D16*
G01*
X4000500Y-2692400D03*
D17*
G01*
X3746500Y-2692400D03*
G01*
X3492500Y-2692400D03*
G01*
X3238500Y-2692400D03*
D16*
G01*
X4254500Y-317500D03*
D17*
G01*
X4508500Y-317500D03*
G01*
X4762500Y-317500D03*
G01*
X5016500Y-317500D03*
D18*
G01*
X3746500Y-317500D03*
G01*
X3492500Y-317500D03*
D19*
G01*
X3238500Y-317500D03*
D20*
G01*
X5321300Y-3048000D03*
D21*
G01*
X5321300Y-3302000D03*
G01*
X444500Y-1489837D03*
G01*
X444500Y-1989962D03*
G01*
X457200Y-2632837D03*
G01*
X457200Y-3132962D03*
D22*
G01*
X1968500Y-2286000D03*
D14*
G01*
X2222500Y-2286000D03*
G01*
X2476500Y-2286000D03*
G01*
X2730500Y-2286000D03*
G01*
X2984500Y-2286000D03*
G01*
X3238500Y-2286000D03*
G01*
X3492500Y-2286000D03*
G01*
X3746500Y-2286000D03*
G01*
X4000500Y-2286000D03*
G01*
X4254500Y-2286000D03*
G01*
X4508500Y-2286000D03*
G01*
X4762500Y-2286000D03*
G01*
X5016500Y-2286000D03*
G01*
X5270500Y-2286000D03*
G01*
X5524500Y-2286000D03*
D22*
G01*
X5524500Y-762000D03*
D14*
G01*
X5270500Y-762000D03*
G01*
X5016500Y-762000D03*
G01*
X4762500Y-762000D03*
G01*
X4508500Y-762000D03*
G01*
X4254500Y-762000D03*
G01*
X4000500Y-762000D03*
G01*
X3746500Y-762000D03*
G01*
X3492500Y-762000D03*
G01*
X3238500Y-762000D03*
G01*
X2984500Y-762000D03*
G01*
X2730500Y-762000D03*
G01*
X2476500Y-762000D03*
G01*
X2222500Y-762000D03*
G01*
X1968500Y-762000D03*
D23*
G01*
X1270000Y-1003300D03*
G01*
X1270000Y-749300D03*
G01*
X1270000Y-495300D03*
G01*
X1270000Y-241300D03*
G01*
X508000Y-1003300D03*
G01*
X508000Y-749300D03*
G01*
X508000Y-495300D03*
G01*
X508000Y-241300D03*
M02*
