G04 Layer: TopSilkscreenLayer*
G04 EasyEDA v6.5.34, 2023-10-02 16:25:13*
G04 b22e730f800c4eb688f2bffe192e1f16,2402692d15bd446891542ced5281a4ad,10*
G04 Gerber Generator version 0.2*
G04 Scale: 100 percent, Rotated: No, Reflected: No *
G04 Dimensions in millimeters *
G04 leading zeros omitted , absolute positions ,4 integer and 5 decimal *
%FSLAX45Y45*%
%MOMM*%

%ADD10C,0.1524*%
%ADD11C,0.2540*%
%ADD12C,0.2032*%
%ADD13C,0.2030*%
%ADD14C,0.3000*%
%ADD15C,0.0134*%

%LPD*%
D10*
X4228591Y-3122421D02*
G01*
X4218177Y-3127755D01*
X4207763Y-3138170D01*
X4202684Y-3148329D01*
X4202684Y-3169157D01*
X4207763Y-3179571D01*
X4218177Y-3189986D01*
X4228591Y-3195320D01*
X4244340Y-3200400D01*
X4270247Y-3200400D01*
X4285741Y-3195320D01*
X4296156Y-3189986D01*
X4306570Y-3179571D01*
X4311650Y-3169157D01*
X4311650Y-3148329D01*
X4306570Y-3138170D01*
X4296156Y-3127755D01*
X4285741Y-3122421D01*
X4223511Y-3088131D02*
G01*
X4218177Y-3077718D01*
X4202684Y-3062223D01*
X4311650Y-3062223D01*
X2326878Y-3499993D02*
G01*
X2435844Y-3499993D01*
X2326878Y-3499993D02*
G01*
X2326878Y-3432429D01*
X2378694Y-3499993D02*
G01*
X2378694Y-3458337D01*
X2326878Y-3398138D02*
G01*
X2435844Y-3398138D01*
X2326878Y-3325495D02*
G01*
X2435844Y-3325495D01*
X2378694Y-3398138D02*
G01*
X2378694Y-3325495D01*
X2347705Y-3291204D02*
G01*
X2342371Y-3280790D01*
X2326878Y-3265043D01*
X2435844Y-3265043D01*
X1897113Y-3499993D02*
G01*
X1788147Y-3499993D01*
X1897113Y-3499993D02*
G01*
X1897113Y-3567556D01*
X1845297Y-3499993D02*
G01*
X1845297Y-3541648D01*
X1897113Y-3601846D02*
G01*
X1788147Y-3601846D01*
X1897113Y-3674490D02*
G01*
X1788147Y-3674490D01*
X1845297Y-3601846D02*
G01*
X1845297Y-3674490D01*
X1871205Y-3714114D02*
G01*
X1876285Y-3714114D01*
X1886699Y-3719195D01*
X1892033Y-3724529D01*
X1897113Y-3734943D01*
X1897113Y-3755517D01*
X1892033Y-3765930D01*
X1886699Y-3771264D01*
X1876285Y-3776345D01*
X1865871Y-3776345D01*
X1855457Y-3771264D01*
X1839963Y-3760851D01*
X1788147Y-3708780D01*
X1788147Y-3781679D01*
X3644900Y-2960115D02*
G01*
X3644900Y-2851150D01*
X3572256Y-2960115D02*
G01*
X3572256Y-2851150D01*
X3644900Y-2908300D02*
G01*
X3572256Y-2908300D01*
X3537965Y-2939287D02*
G01*
X3527552Y-2944621D01*
X3511804Y-2960115D01*
X3511804Y-2851150D01*
X4610100Y-49784D02*
G01*
X4610100Y-158750D01*
X4682743Y-49784D02*
G01*
X4682743Y-158750D01*
X4610100Y-101600D02*
G01*
X4682743Y-101600D01*
X4722368Y-75692D02*
G01*
X4722368Y-70612D01*
X4727447Y-60197D01*
X4732781Y-54863D01*
X4743195Y-49784D01*
X4763770Y-49784D01*
X4774184Y-54863D01*
X4779518Y-60197D01*
X4784597Y-70612D01*
X4784597Y-81026D01*
X4779518Y-91439D01*
X4769104Y-106934D01*
X4717034Y-158750D01*
X4789931Y-158750D01*
X3467100Y-49784D02*
G01*
X3467100Y-158750D01*
X3539743Y-49784D02*
G01*
X3539743Y-158750D01*
X3467100Y-101600D02*
G01*
X3539743Y-101600D01*
X3584447Y-49784D02*
G01*
X3641597Y-49784D01*
X3610609Y-91439D01*
X3626104Y-91439D01*
X3636518Y-96520D01*
X3641597Y-101600D01*
X3646931Y-117347D01*
X3646931Y-127762D01*
X3641597Y-143255D01*
X3631184Y-153670D01*
X3615690Y-158750D01*
X3600195Y-158750D01*
X3584447Y-153670D01*
X3579368Y-148589D01*
X3574034Y-138176D01*
X5576315Y-3162300D02*
G01*
X5467350Y-3162300D01*
X5576315Y-3234944D02*
G01*
X5467350Y-3234944D01*
X5524500Y-3162300D02*
G01*
X5524500Y-3234944D01*
X5576315Y-3321304D02*
G01*
X5503672Y-3269234D01*
X5503672Y-3347212D01*
X5576315Y-3321304D02*
G01*
X5467350Y-3321304D01*
X431800Y-1095120D02*
G01*
X431800Y-1204087D01*
X431800Y-1095120D02*
G01*
X478536Y-1095120D01*
X494029Y-1100201D01*
X499363Y-1105535D01*
X504444Y-1115948D01*
X504444Y-1131443D01*
X499363Y-1141856D01*
X494029Y-1146937D01*
X478536Y-1152270D01*
X431800Y-1152270D01*
X544068Y-1121029D02*
G01*
X544068Y-1115948D01*
X549147Y-1105535D01*
X554481Y-1100201D01*
X564895Y-1095120D01*
X585470Y-1095120D01*
X595884Y-1100201D01*
X601218Y-1105535D01*
X606297Y-1115948D01*
X606297Y-1126362D01*
X601218Y-1136777D01*
X590804Y-1152270D01*
X538734Y-1204087D01*
X611631Y-1204087D01*
X444500Y-2238120D02*
G01*
X444500Y-2347087D01*
X444500Y-2238120D02*
G01*
X491236Y-2238120D01*
X506729Y-2243201D01*
X512063Y-2248535D01*
X517144Y-2258948D01*
X517144Y-2274443D01*
X512063Y-2284856D01*
X506729Y-2289937D01*
X491236Y-2295270D01*
X444500Y-2295270D01*
X561847Y-2238120D02*
G01*
X618997Y-2238120D01*
X588010Y-2279777D01*
X603504Y-2279777D01*
X613918Y-2284856D01*
X618997Y-2289937D01*
X624331Y-2305685D01*
X624331Y-2316098D01*
X618997Y-2331593D01*
X608584Y-2342006D01*
X593089Y-2347087D01*
X577595Y-2347087D01*
X561847Y-2342006D01*
X556768Y-2336927D01*
X551434Y-2326512D01*
X3721100Y-2018278D02*
G01*
X3721100Y-2096256D01*
X3726179Y-2111750D01*
X3736593Y-2122164D01*
X3752341Y-2127244D01*
X3762756Y-2127244D01*
X3778250Y-2122164D01*
X3788663Y-2111750D01*
X3793743Y-2096256D01*
X3793743Y-2018278D01*
X3828034Y-2039106D02*
G01*
X3838447Y-2033772D01*
X3854195Y-2018278D01*
X3854195Y-2127244D01*
X3771900Y-1029715D02*
G01*
X3771900Y-951737D01*
X3766820Y-936244D01*
X3756406Y-925829D01*
X3740658Y-920750D01*
X3730243Y-920750D01*
X3714750Y-925829D01*
X3704336Y-936244D01*
X3699256Y-951737D01*
X3699256Y-1029715D01*
X3659631Y-1003807D02*
G01*
X3659631Y-1008887D01*
X3654552Y-1019302D01*
X3649218Y-1024636D01*
X3638804Y-1029715D01*
X3618229Y-1029715D01*
X3607815Y-1024636D01*
X3602481Y-1019302D01*
X3597402Y-1008887D01*
X3597402Y-998473D01*
X3602481Y-988060D01*
X3612895Y-972565D01*
X3664965Y-920750D01*
X3592068Y-920750D01*
X291084Y-647700D02*
G01*
X369062Y-647700D01*
X384555Y-642620D01*
X394970Y-632205D01*
X400050Y-616457D01*
X400050Y-606044D01*
X394970Y-590550D01*
X384555Y-580136D01*
X369062Y-575055D01*
X291084Y-575055D01*
X291084Y-530352D02*
G01*
X291084Y-473202D01*
X332739Y-504189D01*
X332739Y-488695D01*
X337820Y-478281D01*
X342900Y-473202D01*
X358647Y-467868D01*
X369062Y-467868D01*
X384555Y-473202D01*
X394970Y-483615D01*
X400050Y-499110D01*
X400050Y-514604D01*
X394970Y-530352D01*
X389889Y-535431D01*
X379476Y-540765D01*
G36*
X4669637Y-2857550D02*
G01*
X4653788Y-2858160D01*
X4637989Y-2859582D01*
X4622342Y-2861818D01*
X4606747Y-2864815D01*
X4591405Y-2868676D01*
X4576216Y-2873298D01*
X4561332Y-2878683D01*
X4546701Y-2884830D01*
X4532426Y-2891739D01*
X4518558Y-2899359D01*
X4505045Y-2907690D01*
X4492040Y-2916732D01*
X4479442Y-2926384D01*
X4467402Y-2936697D01*
X4455922Y-2947619D01*
X4445000Y-2959100D01*
X4902200Y-2959100D01*
X4891278Y-2947619D01*
X4879797Y-2936697D01*
X4867757Y-2926384D01*
X4855159Y-2916732D01*
X4842154Y-2907690D01*
X4828641Y-2899359D01*
X4814773Y-2891739D01*
X4800498Y-2884830D01*
X4785868Y-2878683D01*
X4770983Y-2873298D01*
X4755794Y-2868676D01*
X4740452Y-2864815D01*
X4724857Y-2861818D01*
X4709210Y-2859582D01*
X4693412Y-2858160D01*
X4677562Y-2857550D01*
G37*
D11*
X4470400Y-3302000D02*
G01*
X4572000Y-3302000D01*
X4521200Y-3352800D02*
G01*
X4521200Y-3251200D01*
X2603995Y-3199993D02*
G01*
X3143994Y-3199993D01*
X3143994Y-3362241D01*
X2603995Y-3362241D02*
G01*
X2603995Y-3199993D01*
X2603995Y-3799992D02*
G01*
X2603995Y-3637744D01*
X3148995Y-3799992D02*
G01*
X2603995Y-3799992D01*
X3143994Y-3637744D02*
G01*
X3143994Y-3799992D01*
X1619996Y-3799992D02*
G01*
X1079997Y-3799992D01*
X1079997Y-3637744D01*
X1619996Y-3637744D02*
G01*
X1619996Y-3799992D01*
X1619996Y-3199993D02*
G01*
X1619996Y-3362241D01*
X1074996Y-3199993D02*
G01*
X1619996Y-3199993D01*
X1079997Y-3362241D02*
G01*
X1079997Y-3199993D01*
X3871147Y-2819400D02*
G01*
X3111500Y-2819400D01*
X3111500Y-2565400D01*
X4127500Y-2565400D01*
X4127500Y-2819400D01*
X3871147Y-2819400D01*
X3871147Y-2819400D02*
G01*
X3871147Y-2565400D01*
X4383852Y-190500D02*
G01*
X5143500Y-190500D01*
X5143500Y-444500D01*
X4127500Y-444500D01*
X4127500Y-190500D01*
X4383852Y-190500D01*
X4383852Y-190500D02*
G01*
X4383852Y-444500D01*
D12*
X3302000Y-190500D02*
G01*
X3111500Y-190500D01*
X3111500Y-444500D01*
X3873500Y-444500D01*
X3873500Y-190500D01*
D13*
X3873500Y-190500D02*
G01*
X3302000Y-190500D01*
D12*
X5448300Y-3429000D02*
G01*
X5194300Y-3429000D01*
X5194300Y-2921000D01*
X5448300Y-2921000D01*
X5448300Y-3111500D01*
D13*
X5448300Y-3429000D02*
G01*
X5448300Y-3111500D01*
D11*
X844499Y-2239848D02*
G01*
X444500Y-2239848D01*
X64490Y-2239848D01*
X64490Y-1239824D01*
X444500Y-1239824D01*
X844499Y-1239824D01*
X844499Y-2239848D01*
X64490Y-1389837D02*
G01*
X194487Y-1389837D01*
X194487Y-1589836D01*
X64490Y-1589836D01*
X64490Y-1889836D02*
G01*
X194487Y-1889836D01*
X194487Y-2089835D01*
X64490Y-2089835D01*
X857199Y-3382848D02*
G01*
X457200Y-3382848D01*
X77190Y-3382848D01*
X77190Y-2382824D01*
X457200Y-2382824D01*
X857199Y-2382824D01*
X857199Y-3382848D01*
X77190Y-2532837D02*
G01*
X207187Y-2532837D01*
X207187Y-2732836D01*
X77190Y-2732836D01*
X77190Y-3032836D02*
G01*
X207187Y-3032836D01*
X207187Y-3232835D01*
X77190Y-3232835D01*
X5639506Y-2160998D02*
G01*
X5639506Y-2410998D01*
X1829501Y-2410998D02*
G01*
X5639506Y-2410998D01*
X1829501Y-2160998D02*
G01*
X5639506Y-2160998D01*
X2086305Y-2160998D02*
G01*
X2086305Y-2410995D01*
X1829501Y-2410995D02*
G01*
X1829501Y-2160998D01*
X1853493Y-886995D02*
G01*
X1853493Y-636996D01*
X5663498Y-636996D02*
G01*
X1853493Y-636996D01*
X5663498Y-886995D02*
G01*
X1853493Y-886995D01*
X5406694Y-886995D02*
G01*
X5406694Y-636998D01*
X5663498Y-636998D02*
G01*
X5663498Y-886995D01*
D10*
X1155890Y-1109421D02*
G01*
X622109Y-1109421D01*
X622109Y-135178D01*
X1155890Y-135178D01*
X1155890Y-1109421D01*
G75*
G01*
X809625Y-1109421D02*
G02*
X968375Y-1109421I79375J0D01*
D11*
G75*
G01
X4988560Y-3175000D02*
G03X4988560Y-3175000I-314960J0D01*
D14*
G75*
G01
X1285011Y-1117600D02*
G03X1285011Y-1117600I-15011J0D01*
M02*
