G04 Layer: BottomSilkscreenLayer*
G04 EasyEDA v6.5.34, 2023-10-03 11:16:35*
G04 bb2cee3522a8477492119d973bc89143,2402692d15bd446891542ced5281a4ad,10*
G04 Gerber Generator version 0.2*
G04 Scale: 100 percent, Rotated: No, Reflected: No *
G04 Dimensions in millimeters *
G04 leading zeros omitted , absolute positions ,4 integer and 5 decimal *
%FSLAX45Y45*%
%MOMM*%

%ADD10C,0.5000*%
%ADD11C,0.1524*%

%LPD*%
D10*
X5537200Y-1411427D02*
G01*
X5537200Y-1650062D01*
X5537200Y-1650062D02*
G01*
X5400837Y-1650062D01*
X5325836Y-1559153D02*
G01*
X5189474Y-1559153D01*
X5189474Y-1536428D01*
X5200837Y-1513700D01*
X5212201Y-1502336D01*
X5234927Y-1490972D01*
X5269019Y-1490972D01*
X5291747Y-1502336D01*
X5314472Y-1525064D01*
X5325836Y-1559153D01*
X5325836Y-1581881D01*
X5314472Y-1615973D01*
X5291747Y-1638701D01*
X5269019Y-1650062D01*
X5234927Y-1650062D01*
X5212201Y-1638701D01*
X5189474Y-1615973D01*
X5114472Y-1411427D02*
G01*
X5114472Y-1650062D01*
X5114472Y-1411427D02*
G01*
X5012202Y-1411427D01*
X4978110Y-1422791D01*
X4966746Y-1434155D01*
X4955382Y-1456883D01*
X4955382Y-1479608D01*
X4966746Y-1502336D01*
X4978110Y-1513700D01*
X5012202Y-1525064D01*
X5114472Y-1525064D01*
X5034927Y-1525064D02*
G01*
X4955382Y-1650062D01*
X4744018Y-1490972D02*
G01*
X4744018Y-1650062D01*
X4744018Y-1525064D02*
G01*
X4766746Y-1502336D01*
X4789474Y-1490972D01*
X4823564Y-1490972D01*
X4846292Y-1502336D01*
X4869019Y-1525064D01*
X4880383Y-1559153D01*
X4880383Y-1581881D01*
X4869019Y-1615973D01*
X4846292Y-1638701D01*
X4823564Y-1650062D01*
X4789474Y-1650062D01*
X4766746Y-1638701D01*
X4744018Y-1615973D01*
X4634928Y-1411427D02*
G01*
X4634928Y-1604609D01*
X4623564Y-1638701D01*
X4600839Y-1650062D01*
X4578111Y-1650062D01*
X4669020Y-1490972D02*
G01*
X4589475Y-1490972D01*
X4446292Y-1490972D02*
G01*
X4469020Y-1502336D01*
X4491748Y-1525064D01*
X4503110Y-1559153D01*
X4503110Y-1581881D01*
X4491748Y-1615973D01*
X4469020Y-1638701D01*
X4446292Y-1650062D01*
X4412203Y-1650062D01*
X4389475Y-1638701D01*
X4366747Y-1615973D01*
X4355383Y-1581881D01*
X4355383Y-1559153D01*
X4366747Y-1525064D01*
X4389475Y-1502336D01*
X4412203Y-1490972D01*
X4446292Y-1490972D01*
X4280385Y-1490972D02*
G01*
X4280385Y-1650062D01*
X4280385Y-1536428D02*
G01*
X4246293Y-1502336D01*
X4223565Y-1490972D01*
X4189475Y-1490972D01*
X4166748Y-1502336D01*
X4155384Y-1536428D01*
X4155384Y-1650062D01*
X3894020Y-1468246D02*
G01*
X3894020Y-1456883D01*
X3882656Y-1434155D01*
X3871295Y-1422791D01*
X3848567Y-1411427D01*
X3803111Y-1411427D01*
X3780386Y-1422791D01*
X3769022Y-1434155D01*
X3757658Y-1456883D01*
X3757658Y-1479608D01*
X3769022Y-1502336D01*
X3791750Y-1536428D01*
X3905384Y-1650062D01*
X3746294Y-1650062D01*
X3603111Y-1411427D02*
G01*
X3637203Y-1422791D01*
X3659931Y-1456883D01*
X3671295Y-1513700D01*
X3671295Y-1547792D01*
X3659931Y-1604609D01*
X3637203Y-1638701D01*
X3603111Y-1650062D01*
X3580386Y-1650062D01*
X3546294Y-1638701D01*
X3523566Y-1604609D01*
X3512205Y-1547792D01*
X3512205Y-1513700D01*
X3523566Y-1456883D01*
X3546294Y-1422791D01*
X3580386Y-1411427D01*
X3603111Y-1411427D01*
X3425840Y-1468246D02*
G01*
X3425840Y-1456883D01*
X3414476Y-1434155D01*
X3403112Y-1422791D01*
X3380386Y-1411427D01*
X3334931Y-1411427D01*
X3312205Y-1422791D01*
X3300841Y-1434155D01*
X3289477Y-1456883D01*
X3289477Y-1479608D01*
X3300841Y-1502336D01*
X3323567Y-1536428D01*
X3437204Y-1650062D01*
X3278113Y-1650062D01*
X3180387Y-1411427D02*
G01*
X3055386Y-1411427D01*
X3123567Y-1502336D01*
X3089478Y-1502336D01*
X3066750Y-1513700D01*
X3055386Y-1525064D01*
X3044022Y-1559153D01*
X3044022Y-1581881D01*
X3055386Y-1615973D01*
X3078114Y-1638701D01*
X3112206Y-1650062D01*
X3146295Y-1650062D01*
X3180387Y-1638701D01*
X3191751Y-1627337D01*
X3203112Y-1604609D01*
X2794022Y-1490972D02*
G01*
X2794022Y-1604609D01*
X2782658Y-1638701D01*
X2759933Y-1650062D01*
X2725841Y-1650062D01*
X2703113Y-1638701D01*
X2669024Y-1604609D01*
X2669024Y-1490972D02*
G01*
X2669024Y-1650062D01*
X2594023Y-1490972D02*
G01*
X2594023Y-1650062D01*
X2594023Y-1536428D02*
G01*
X2559933Y-1502336D01*
X2537206Y-1490972D01*
X2503114Y-1490972D01*
X2480388Y-1502336D01*
X2469024Y-1536428D01*
X2469024Y-1650062D01*
X2469024Y-1536428D02*
G01*
X2434932Y-1502336D01*
X2412207Y-1490972D01*
X2378115Y-1490972D01*
X2355387Y-1502336D01*
X2344023Y-1536428D01*
X2344023Y-1650062D01*
X2132660Y-1525064D02*
G01*
X2155388Y-1502336D01*
X2178116Y-1490972D01*
X2212207Y-1490972D01*
X2234933Y-1502336D01*
X2257661Y-1525064D01*
X2269025Y-1559153D01*
X2269025Y-1581881D01*
X2257661Y-1615973D01*
X2234933Y-1638701D01*
X2212207Y-1650062D01*
X2178116Y-1650062D01*
X2155388Y-1638701D01*
X2132660Y-1615973D01*
X2057661Y-1547792D02*
G01*
X1853115Y-1547792D01*
X1778116Y-1490972D02*
G01*
X1778116Y-1650062D01*
X1778116Y-1536428D02*
G01*
X1744024Y-1502336D01*
X1721299Y-1490972D01*
X1687207Y-1490972D01*
X1664479Y-1502336D01*
X1653115Y-1536428D01*
X1653115Y-1650062D01*
X1653115Y-1536428D02*
G01*
X1619026Y-1502336D01*
X1596298Y-1490972D01*
X1562209Y-1490972D01*
X1539481Y-1502336D01*
X1528117Y-1536428D01*
X1528117Y-1650062D01*
X1453116Y-1411427D02*
G01*
X1453116Y-1650062D01*
X1339481Y-1490972D02*
G01*
X1453116Y-1604609D01*
X1407662Y-1559153D02*
G01*
X1328117Y-1650062D01*
X1253116Y-1456883D02*
G01*
X1230391Y-1445519D01*
X1196299Y-1411427D01*
X1196299Y-1650062D01*
D11*
X3390900Y-2475484D02*
G01*
X3390900Y-2584450D01*
X3390900Y-2475484D02*
G01*
X3344163Y-2475484D01*
X3328670Y-2480563D01*
X3323336Y-2485897D01*
X3318256Y-2496312D01*
X3318256Y-2506726D01*
X3323336Y-2517139D01*
X3328670Y-2522220D01*
X3344163Y-2527300D01*
X3390900Y-2527300D01*
X3354577Y-2527300D02*
G01*
X3318256Y-2584450D01*
X3283965Y-2496312D02*
G01*
X3273552Y-2490978D01*
X3257804Y-2475484D01*
X3257804Y-2584450D01*
X4060372Y-3186656D02*
G01*
X4060372Y-3295622D01*
X4060372Y-3186656D02*
G01*
X4013636Y-3186656D01*
X3998142Y-3191736D01*
X3992808Y-3197070D01*
X3987728Y-3207484D01*
X3987728Y-3217898D01*
X3992808Y-3228312D01*
X3998142Y-3233392D01*
X4013636Y-3238472D01*
X4060372Y-3238472D01*
X4024050Y-3238472D02*
G01*
X3987728Y-3295622D01*
X3890954Y-3186656D02*
G01*
X3943024Y-3186656D01*
X3948104Y-3233392D01*
X3943024Y-3228312D01*
X3927276Y-3222978D01*
X3911782Y-3222978D01*
X3896288Y-3228312D01*
X3885874Y-3238472D01*
X3880540Y-3254220D01*
X3880540Y-3264634D01*
X3885874Y-3280128D01*
X3896288Y-3290542D01*
X3911782Y-3295622D01*
X3927276Y-3295622D01*
X3943024Y-3290542D01*
X3948104Y-3285462D01*
X3953438Y-3275048D01*
X5072634Y-2711957D02*
G01*
X5077968Y-2701544D01*
X5088381Y-2691129D01*
X5098541Y-2686050D01*
X5119370Y-2686050D01*
X5129784Y-2691129D01*
X5140197Y-2701544D01*
X5145531Y-2711957D01*
X5150611Y-2727705D01*
X5150611Y-2753613D01*
X5145531Y-2769107D01*
X5140197Y-2779521D01*
X5129784Y-2789936D01*
X5119370Y-2795015D01*
X5098541Y-2795015D01*
X5088381Y-2789936D01*
X5077968Y-2779521D01*
X5072634Y-2769107D01*
X5033263Y-2711957D02*
G01*
X5033263Y-2706878D01*
X5027929Y-2696463D01*
X5022850Y-2691129D01*
X5012436Y-2686050D01*
X4991608Y-2686050D01*
X4981193Y-2691129D01*
X4976113Y-2696463D01*
X4970779Y-2706878D01*
X4970779Y-2717292D01*
X4976113Y-2727705D01*
X4986527Y-2743200D01*
X5038343Y-2795015D01*
X4965700Y-2795015D01*
X876300Y-392684D02*
G01*
X876300Y-501650D01*
X876300Y-392684D02*
G01*
X829563Y-392684D01*
X814070Y-397763D01*
X808736Y-403097D01*
X803655Y-413512D01*
X803655Y-423926D01*
X808736Y-434339D01*
X814070Y-439420D01*
X829563Y-444500D01*
X876300Y-444500D01*
X839978Y-444500D02*
G01*
X803655Y-501650D01*
X764031Y-418592D02*
G01*
X764031Y-413512D01*
X758952Y-403097D01*
X753618Y-397763D01*
X743204Y-392684D01*
X722629Y-392684D01*
X712215Y-397763D01*
X706881Y-403097D01*
X701802Y-413512D01*
X701802Y-423926D01*
X706881Y-434339D01*
X717295Y-449834D01*
X769365Y-501650D01*
X696468Y-501650D01*
X1616582Y-1216532D02*
G01*
X1616582Y-1325498D01*
X1616582Y-1216532D02*
G01*
X1569846Y-1216532D01*
X1554353Y-1221612D01*
X1549019Y-1226946D01*
X1543938Y-1237361D01*
X1543938Y-1247775D01*
X1549019Y-1258188D01*
X1554353Y-1263269D01*
X1569846Y-1268348D01*
X1616582Y-1268348D01*
X1580261Y-1268348D02*
G01*
X1543938Y-1325498D01*
X1499235Y-1216532D02*
G01*
X1442085Y-1216532D01*
X1473072Y-1258188D01*
X1457579Y-1258188D01*
X1447164Y-1263269D01*
X1442085Y-1268348D01*
X1436751Y-1284096D01*
X1436751Y-1294511D01*
X1442085Y-1310004D01*
X1452498Y-1320419D01*
X1467993Y-1325498D01*
X1483487Y-1325498D01*
X1499235Y-1320419D01*
X1504314Y-1315338D01*
X1509648Y-1304925D01*
X1829688Y-449961D02*
G01*
X1829688Y-558927D01*
X1829688Y-449961D02*
G01*
X1782953Y-449961D01*
X1767459Y-455040D01*
X1762125Y-460375D01*
X1757045Y-470788D01*
X1757045Y-481203D01*
X1762125Y-491617D01*
X1767459Y-496696D01*
X1782953Y-501777D01*
X1829688Y-501777D01*
X1793367Y-501777D02*
G01*
X1757045Y-558927D01*
X1670685Y-449961D02*
G01*
X1722754Y-522604D01*
X1644777Y-522604D01*
X1670685Y-449961D02*
G01*
X1670685Y-558927D01*
X3571880Y-2619009D02*
G01*
X3443386Y-2619009D01*
X3443386Y-2435590D01*
X3571880Y-2435590D01*
X3667119Y-2619009D02*
G01*
X3795613Y-2619009D01*
X3795613Y-2435590D01*
X3667119Y-2435590D01*
X3851280Y-3165109D02*
G01*
X3722786Y-3165109D01*
X3722786Y-2981690D01*
X3851280Y-2981690D01*
X3946519Y-3165109D02*
G01*
X4075013Y-3165109D01*
X4075013Y-2981690D01*
X3946519Y-2981690D01*
X5578619Y-2820860D02*
G01*
X5437619Y-2820860D01*
X5437619Y-2640139D02*
G01*
X5578619Y-2640139D01*
X5593859Y-2655379D02*
G01*
X5593859Y-2805620D01*
X5216380Y-2820860D02*
G01*
X5357380Y-2820860D01*
X5357380Y-2640139D02*
G01*
X5216380Y-2640139D01*
X5201140Y-2655379D02*
G01*
X5201140Y-2805620D01*
X809990Y-663580D02*
G01*
X809990Y-535086D01*
X993409Y-535086D01*
X993409Y-663580D01*
X809990Y-758819D02*
G01*
X809990Y-887313D01*
X993409Y-887313D01*
X993409Y-758819D01*
X1615709Y-1012819D02*
G01*
X1615709Y-1141313D01*
X1432290Y-1141313D01*
X1432290Y-1012819D01*
X1615709Y-917580D02*
G01*
X1615709Y-789086D01*
X1432290Y-789086D01*
X1432290Y-917580D01*
X1432290Y-320680D02*
G01*
X1432290Y-192186D01*
X1615709Y-192186D01*
X1615709Y-320680D01*
X1432290Y-415919D02*
G01*
X1432290Y-544413D01*
X1615709Y-544413D01*
X1615709Y-415919D01*
G75*
G01*
X5578620Y-2640140D02*
G02*
X5593860Y-2655380I0J-15240D01*
G75*
G01*
X5593860Y-2805620D02*
G02*
X5578620Y-2820860I-15240J0D01*
G75*
G01*
X5216380Y-2640140D02*
G03*
X5201140Y-2655380I0J-15240D01*
G75*
G01*
X5201140Y-2805620D02*
G03*
X5216380Y-2820860I15240J0D01*
M02*
