G04 Layer: BottomSolderMaskLayer*
G04 EasyEDA v6.5.34, 2023-10-03 11:16:35*
G04 bb2cee3522a8477492119d973bc89143,2402692d15bd446891542ced5281a4ad,10*
G04 Gerber Generator version 0.2*
G04 Scale: 100 percent, Rotated: No, Reflected: No *
G04 Dimensions in millimeters *
G04 leading zeros omitted , absolute positions ,4 integer and 5 decimal *
%FSLAX45Y45*%
%MOMM*%

%AMMACRO1*1,1,$1,$2,$3*1,1,$1,$4,$5*1,1,$1,0-$2,0-$3*1,1,$1,0-$4,0-$5*20,1,$1,$2,$3,$4,$5,0*20,1,$1,$4,$5,0-$2,0-$3,0*20,1,$1,0-$2,0-$3,0-$4,0-$5,0*20,1,$1,0-$4,0-$5,$2,$3,0*4,1,4,$2,$3,$4,$5,0-$2,0-$3,0-$4,0-$5,$2,$3,0*%
%ADD10MACRO1,0.1016X0.5663X-0.6885X0.5663X0.6885*%
%ADD11MACRO1,0.1016X-0.5663X-0.6885X-0.5663X0.6885*%
%ADD12MACRO1,0.1016X-0.705X0.675X-0.705X-0.675*%
%ADD13MACRO1,0.1016X0.705X0.675X0.705X-0.675*%
%ADD14MACRO1,0.1016X-0.6885X-0.5663X0.6885X-0.5663*%
%ADD15MACRO1,0.1016X-0.6885X0.5663X0.6885X0.5663*%
%ADD16MACRO1,0.1016X0.6885X0.5663X-0.6885X0.5663*%
%ADD17MACRO1,0.1016X0.6885X-0.5663X-0.6885X-0.5663*%
%ADD18C,1.7016*%
%ADD19C,2.4000*%
%ADD20MACRO1,0.1016X0.85X-0.85X-0.85X-0.85*%
%ADD21C,1.8016*%
%ADD22MACRO1,0.1016X-0.85X0.85X0.85X0.85*%
%ADD23C,1.9016*%
%ADD24MACRO1,0.1016X-0.7874X0.9X0.7874X0.9*%
%ADD25MACRO1,0.1016X1X1X1X-1*%
%ADD26C,2.1016*%
%ADD27MACRO1,0.1X-0.8X0.8X0.8X0.8*%
%ADD28C,1.7000*%
%ADD29MACRO1,0.1X0.8X-0.8X-0.8X-0.8*%
%ADD30O,1.92659X1.561592*%

%LPD*%
D10*
G01*
X3519495Y-2527300D03*
D11*
G01*
X3719504Y-2527300D03*
D10*
G01*
X3798895Y-3073400D03*
D11*
G01*
X3998904Y-3073400D03*
D12*
G01*
X5497502Y-2730500D03*
D13*
G01*
X5297497Y-2730500D03*
D14*
G01*
X901700Y-611195D03*
D15*
G01*
X901700Y-811204D03*
D16*
G01*
X1524000Y-1065204D03*
D17*
G01*
X1524000Y-865195D03*
D14*
G01*
X1524000Y-268295D03*
D15*
G01*
X1524000Y-468304D03*
D18*
G01*
X4610100Y-3302000D03*
G01*
X4610100Y-3048000D03*
D19*
G01*
X2593975Y-3499993D03*
G01*
X3153994Y-3499993D03*
G01*
X1630019Y-3499993D03*
G01*
X1070000Y-3499993D03*
D20*
G01*
X4000500Y-2768600D03*
D21*
G01*
X3746500Y-2768600D03*
G01*
X3492500Y-2768600D03*
G01*
X3238500Y-2768600D03*
D22*
G01*
X4254500Y-317500D03*
D21*
G01*
X4508500Y-317500D03*
G01*
X4762500Y-317500D03*
G01*
X5016500Y-317500D03*
D23*
G01*
X3746500Y-317500D03*
G01*
X3492500Y-317500D03*
D24*
G01*
X3238500Y-317500D03*
D25*
G01*
X5219700Y-3048000D03*
D26*
G01*
X5219700Y-3302000D03*
G01*
X444500Y-1489837D03*
G01*
X444500Y-1989962D03*
G01*
X457200Y-2632837D03*
G01*
X457200Y-3132962D03*
D27*
G01*
X1968499Y-2285994D03*
D28*
G01*
X2222500Y-2286000D03*
G01*
X2476500Y-2286000D03*
G01*
X2730500Y-2286000D03*
G01*
X2984500Y-2286000D03*
G01*
X3238500Y-2286000D03*
G01*
X3492500Y-2286000D03*
G01*
X3746500Y-2286000D03*
G01*
X4000500Y-2286000D03*
G01*
X4254500Y-2286000D03*
G01*
X4508500Y-2286000D03*
G01*
X4762500Y-2286000D03*
G01*
X5016500Y-2286000D03*
G01*
X5270500Y-2286000D03*
G01*
X5524500Y-2286000D03*
D29*
G01*
X5524500Y-762000D03*
D28*
G01*
X5270500Y-762000D03*
G01*
X5016500Y-762000D03*
G01*
X4762500Y-762000D03*
G01*
X4508500Y-762000D03*
G01*
X4254500Y-762000D03*
G01*
X4000500Y-762000D03*
G01*
X3746500Y-762000D03*
G01*
X3492500Y-762000D03*
G01*
X3238500Y-762000D03*
G01*
X2984500Y-762000D03*
G01*
X2730500Y-762000D03*
G01*
X2476500Y-762000D03*
G01*
X2222500Y-762000D03*
G01*
X1968500Y-762000D03*
D30*
G01*
X1270000Y-1003300D03*
G01*
X1270000Y-749300D03*
G01*
X1270000Y-495300D03*
G01*
X1270000Y-241300D03*
G01*
X508000Y-1003300D03*
G01*
X508000Y-749300D03*
G01*
X508000Y-495300D03*
G01*
X508000Y-241300D03*
M02*
