G04 Layer: BottomPasteMaskLayer*
G04 EasyEDA v6.5.34, 2023-10-02 16:25:13*
G04 b22e730f800c4eb688f2bffe192e1f16,2402692d15bd446891542ced5281a4ad,10*
G04 Gerber Generator version 0.2*
G04 Scale: 100 percent, Rotated: No, Reflected: No *
G04 Dimensions in millimeters *
G04 leading zeros omitted , absolute positions ,4 integer and 5 decimal *
%FSLAX45Y45*%
%MOMM*%

%ADD10C,0.0001*%

%LPD*%
G36*
X924712Y-755700D02*
G01*
X924712Y-800709D01*
X879703Y-800709D01*
X879703Y-756716D01*
X837692Y-756208D01*
X832713Y-761187D01*
X832713Y-876198D01*
X837692Y-881227D01*
X965708Y-881227D01*
X970686Y-876198D01*
X970686Y-761187D01*
X965708Y-756208D01*
G37*
G36*
X837692Y-541223D02*
G01*
X832713Y-546201D01*
X832713Y-661212D01*
X837692Y-666191D01*
X879703Y-666191D01*
X879703Y-621690D01*
X924712Y-621690D01*
X924712Y-665683D01*
X965708Y-666191D01*
X970686Y-661212D01*
X970686Y-546201D01*
X965708Y-541223D01*
G37*
G36*
X1459992Y-795172D02*
G01*
X1455013Y-800201D01*
X1455013Y-915212D01*
X1459992Y-920191D01*
X1500987Y-920699D01*
X1500987Y-875690D01*
X1545996Y-875690D01*
X1545996Y-919683D01*
X1588008Y-920191D01*
X1592986Y-915212D01*
X1592986Y-800201D01*
X1588008Y-795172D01*
G37*
G36*
X1459992Y-1010208D02*
G01*
X1455013Y-1015187D01*
X1455013Y-1130198D01*
X1459992Y-1135176D01*
X1588008Y-1135176D01*
X1592986Y-1130198D01*
X1592986Y-1015187D01*
X1588008Y-1010208D01*
X1545996Y-1010208D01*
X1545996Y-1054709D01*
X1500987Y-1054709D01*
X1500987Y-1010716D01*
G37*
G36*
X1547012Y-412800D02*
G01*
X1547012Y-457809D01*
X1502003Y-457809D01*
X1502003Y-413816D01*
X1459992Y-413308D01*
X1455013Y-418287D01*
X1455013Y-533298D01*
X1459992Y-538327D01*
X1588008Y-538327D01*
X1592986Y-533298D01*
X1592986Y-418287D01*
X1588008Y-413308D01*
G37*
G36*
X1459992Y-198323D02*
G01*
X1455013Y-203301D01*
X1455013Y-318312D01*
X1459992Y-323291D01*
X1502003Y-323291D01*
X1502003Y-278790D01*
X1547012Y-278790D01*
X1547012Y-322783D01*
X1588008Y-323291D01*
X1592986Y-318312D01*
X1592986Y-203301D01*
X1588008Y-198323D01*
G37*
M02*
